<?xml version="1.0" standalone="no"?>
<!DOCTYPE svg PUBLIC "-//W3C//DTD SVG 1.1//EN" "http://www.w3.org/Graphics/SVG/1.1/DTD/svg11.dtd" >
<svg>
<metadata>
Created by FontForge 20110222 at Thu Feb 26 09:43:39 2015
 By deploy user
Copyright 1990-1993 Bitstream Inc.  All rights reserved.
</metadata>
<defs>
<font id="Geometric212BT-BookCondensed" horiz-adv-x="1024" >
  <font-face 
    font-family="Geometr212 BkCn BT"
    font-weight="400"
    font-stretch="condensed"
    units-per-em="2048"
    panose-1="2 11 6 3 2 2 4 2 2 4"
    ascent="1638"
    descent="-410"
    x-height="1204"
    cap-height="1587"
    bbox="-342 -483 2972 2050"
    underline-thickness="170"
    underline-position="-101"
    unicode-range="U+0020-F002"
  />
<missing-glyph horiz-adv-x="1229" 
d="M102 -362v1806h1024v-1806h-1024zM217 -248h795v1577h-795v-1577z" />
    <glyph glyph-name=".notdef" horiz-adv-x="1229" 
d="M102 -362v1806h1024v-1806h-1024zM217 -248h795v1577h-795v-1577z" />
    <glyph glyph-name=".null" horiz-adv-x="0" 
 />
    <glyph glyph-name="nonmarkingreturn" horiz-adv-x="555" 
 />
    <glyph glyph-name="space" unicode=" " horiz-adv-x="555" 
 />
    <glyph glyph-name="exclam" unicode="!" horiz-adv-x="602" 
d="M301 -16q-70 0 -118 48t-48 118q0 69 48.5 117t117.5 48t117.5 -48t48.5 -117q0 -70 -48 -118t-118 -48zM188 526v1061h224v-1061h-224z" />
    <glyph glyph-name="quotedbl" unicode="&#x22;" horiz-adv-x="614" 
d="M524 1436v-555h-139v555h139zM229 1436v-555h-139v555h139z" />
    <glyph glyph-name="numbersign" unicode="#" horiz-adv-x="1575" 
d="M969 858h-260l-93 -264h261zM924 1458l-162 -454h256l164 454h164l-160 -454h301l-51 -146h-303l-93 -262h322l-51 -147h-322l-162 -453h-165l161 453h-258l-162 -453h-165l159 453h-309l53 147h310l92 262h-330l51 146h332l162 454h166z" />
    <glyph glyph-name="dollar" unicode="$" horiz-adv-x="1110" 
d="M606 639v-446q110 13 170 69t60 146q0 77 -54.5 131.5t-175.5 99.5zM492 1313q-106 -20 -162 -69.5t-56 -123.5q0 -70 53 -124.5t165 -98.5v416zM606 858q223 -74 324.5 -178t101.5 -258q0 -179 -113.5 -290t-312.5 -126v-178h-114v180q-152 25 -261.5 99.5t-185.5 203.5
l172 105q44 -92 113 -148.5t162 -74.5v485q-210 73 -309 175.5t-99 244.5q0 160 110.5 265t297.5 120v147h114v-145q136 -17 238.5 -78.5t175.5 -169.5l-160 -125q-50 89 -112 137t-142 60v-451z" />
    <glyph glyph-name="percent" unicode="%" horiz-adv-x="2077" 
d="M1165 379q0 172 121 292t293 120t292 -120t120 -292t-120 -292t-292 -120q-84 0 -158.5 30.5t-132.5 88.5q-60 60 -91.5 135t-31.5 158zM1315 379q0 -109 77.5 -186.5t186.5 -77.5t185.5 76.5t76.5 187.5q0 110 -75.5 186t-186.5 76q-110 0 -187 -76.5t-77 -185.5z
M84 1180q0 172 121 292.5t293 120.5q171 0 291 -120.5t120 -292.5t-119.5 -292t-291.5 -120q-83 0 -158 31t-133 90q-60 60 -91.5 134t-31.5 157zM233 1182q0 -109 78 -186.5t187 -77.5t186.5 77t77.5 187q0 109 -77 185.5t-187 76.5t-187.5 -77t-77.5 -185zM494 -33
l940 1626h143l-936 -1626h-147z" />
    <glyph glyph-name="ampersand" unicode="&#x26;" horiz-adv-x="1497" 
d="M600 1012q96 70 140 134.5t44 133.5q0 72 -45 117t-116 45q-75 0 -120.5 -46t-45.5 -120q0 -66 36 -132.5t107 -131.5zM561 735q-131 -87 -190.5 -168t-59.5 -172q0 -105 71 -171t185 -66q101 0 196 43t165 118zM1225 0l-158 178q-118 -108 -244.5 -160.5t-269.5 -52.5
q-211 0 -338 121.5t-127 321.5q0 144 78.5 261.5t243.5 221.5q-82 90 -121 179.5t-39 182.5q0 164 104.5 266.5t272.5 102.5q159 0 258.5 -100t99.5 -258q0 -112 -58.5 -207.5t-187.5 -192.5l344 -379q61 62 115 132.5t100 148.5l146 -131q-29 -66 -82.5 -139.5
t-134.5 -159.5l299 -336h-301z" />
    <glyph glyph-name="quotesingle" unicode="'" horiz-adv-x="317" 
d="M229 1436v-555h-139v555h139z" />
    <glyph glyph-name="parenleft" unicode="(" horiz-adv-x="868" 
d="M831 1620q-185 -204 -278.5 -428.5t-93.5 -464.5t93.5 -464.5t278.5 -428.5h-241q-168 194 -252 417.5t-84 475.5t84 475.5t252 417.5h241z" />
    <glyph glyph-name="parenright" unicode=")" horiz-adv-x="868" 
d="M33 -166q185 204 279 428.5t94 464.5t-94 464.5t-279 428.5h241q168 -194 252 -417.5t84 -475.5t-84 -475.5t-252 -417.5h-241z" />
    <glyph glyph-name="asterisk" unicode="*" horiz-adv-x="920" 
d="M459 1122l-170 -309l-150 111l242 256l-342 67l57 174l316 -151l-37 352h170l-39 -352l315 151l58 -174l-342 -67l241 -256l-149 -111z" />
    <glyph glyph-name="plus" unicode="+" horiz-adv-x="1706" 
d="M924 1221v-541h528v-139h-528v-541h-142v541h-528v139h528v541h142z" />
    <glyph glyph-name="comma" unicode="," horiz-adv-x="555" 
d="M-23 -152l224 646h260l-293 -646h-191z" />
    <glyph glyph-name="hyphen" unicode="-" horiz-adv-x="750" 
d="M94 514v199h559v-199h-559z" />
    <glyph glyph-name="period" unicode="." horiz-adv-x="555" 
d="M276 -16q-70 0 -117.5 48t-47.5 118q0 69 48 117t117 48q70 0 118 -48t48 -117q0 -70 -48 -118t-118 -48z" />
    <glyph glyph-name="slash" unicode="/" horiz-adv-x="639" 
d="M717 1622l-692 -1812h-160l690 1812h162z" />
    <glyph glyph-name="zero" unicode="0" horiz-adv-x="1110" 
d="M311 780q0 -287 65 -448.5t179 -161.5t179 161.5t65 448.5q0 289 -64.5 449t-179.5 160q-113 0 -178.5 -162t-65.5 -447zM72 780q0 379 129.5 596t353.5 217q227 0 355 -214.5t128 -598.5q0 -382 -128 -597.5t-353 -215.5q-226 0 -355.5 216t-129.5 597z" />
    <glyph glyph-name="one" unicode="1" horiz-adv-x="1110" 
d="M449 0v1370h-289v191h524v-1561h-235z" />
    <glyph glyph-name="two" unicode="2" horiz-adv-x="1110" 
d="M10 0l114 136q642 773 642 1013q0 116 -59 182t-164 66q-112 0 -172 -85.5t-60 -246.5v-23h-223v39q0 240 120 376t331 136q212 0 335 -123t123 -335q0 -175 -111.5 -367.5t-453.5 -562.5h572v-205h-994z" />
    <glyph glyph-name="three" unicode="3" horiz-adv-x="1110" 
d="M59 389h234q15 -107 80.5 -164t173.5 -57q113 0 176 69.5t63 194.5q0 130 -79 204.5t-218 74.5v184h13q132 0 203 66.5t71 189.5q0 116 -62.5 183t-170.5 67q-99 0 -158.5 -59.5t-67.5 -165.5h-227q12 193 134.5 305t320.5 112q212 0 335.5 -116t123.5 -316
q0 -128 -56 -215.5t-168 -134.5q124 -51 185 -144t61 -229q0 -210 -133 -340.5t-348 -130.5q-208 0 -339 114.5t-147 307.5z" />
    <glyph glyph-name="four" unicode="4" horiz-adv-x="1110" 
d="M723 469l12 696l-444 -696h432zM711 0v293h-686v76l829 1224h66v-1124h131v-176h-131v-293h-209z" />
    <glyph glyph-name="five" unicode="5" horiz-adv-x="1110" 
d="M2 207l150 151q58 -99 136.5 -146.5t182.5 -47.5q138 0 221.5 91t83.5 243q0 153 -81.5 241t-221.5 88q-73 0 -143 -24.5t-135 -73.5l-33 23l166 809h673v-193h-516l-88 -381q50 13 93 20t79 7q199 0 317 -134.5t118 -361.5q0 -252 -145.5 -401.5t-389.5 -149.5
q-146 0 -262.5 60t-204.5 180z" />
    <glyph glyph-name="six" unicode="6" horiz-adv-x="1110" 
d="M289 471q0 -145 72.5 -231t193.5 -86t193.5 86t72.5 231q0 144 -73 230.5t-193 86.5t-193 -86.5t-73 -230.5zM444 930q39 19 82.5 28t94.5 9q70 0 137 -26.5t121 -76.5q79 -72 121 -173.5t42 -221.5q0 -221 -132.5 -362.5t-340.5 -141.5q-217 0 -356 149.5t-139 385.5
q0 117 40 236t119 237l402 588h270z" />
    <glyph glyph-name="seven" unicode="7" horiz-adv-x="1110" 
d="M178 0l594 1370h-659v191h977l-676 -1561h-236z" />
    <glyph glyph-name="eight" unicode="8" horiz-adv-x="1110" 
d="M305 438q0 -126 67.5 -201t180.5 -75t181.5 75.5t68.5 200.5t-68.5 200t-181.5 75q-114 0 -181 -74.5t-67 -200.5zM332 1153q0 -116 60 -185t161 -69t162 69.5t61 184.5t-61 184.5t-162 69.5t-161 -69t-60 -185zM307 819q-97 63 -143.5 147.5t-46.5 196.5
q0 186 124.5 308t313.5 122q188 0 312 -122.5t124 -307.5q0 -111 -47 -196t-143 -148q110 -62 169.5 -163.5t59.5 -225.5q0 -95 -36 -180.5t-105 -153.5q-65 -63 -149.5 -96t-184.5 -33t-184.5 33t-149.5 96q-70 68 -106.5 154t-36.5 180q0 124 59.5 225.5t169.5 163.5z" />
    <glyph glyph-name="nine" unicode="9" horiz-adv-x="1110" 
d="M817 1090q0 145 -72.5 231t-193.5 86q-122 0 -194 -86t-72 -231q0 -144 73 -231t193 -87t193 87t73 231zM662 631q-40 -19 -82 -28t-93 -9q-180 0 -302 141.5t-122 356.5q0 220 133.5 360.5t342.5 140.5q217 0 355 -148.5t138 -383.5q0 -118 -40 -237t-120 -236
l-399 -588h-272z" />
    <glyph glyph-name="colon" unicode=":" horiz-adv-x="602" 
d="M301 817q-70 0 -118 48t-48 118t48.5 119t117.5 49t117.5 -49t48.5 -119t-48 -118t-118 -48zM301 -16q-70 0 -118 48t-48 118q0 69 48.5 117t117.5 48t117.5 -48t48.5 -117q0 -70 -48 -118t-118 -48z" />
    <glyph glyph-name="semicolon" unicode=";" horiz-adv-x="602" 
d="M322 817q-70 0 -118 48t-48 118t48.5 119t117.5 49t118 -49.5t49 -118.5t-48.5 -117.5t-118.5 -48.5zM-33 -152l226 646h260l-295 -646h-191z" />
    <glyph glyph-name="less" unicode="&#x3c;" horiz-adv-x="1706" 
d="M1442 1006l-969 -396l969 -393v-154l-1178 484v129l1178 483v-153z" />
    <glyph glyph-name="equal" unicode="=" horiz-adv-x="1706" 
d="M1452 481v-139h-1198v139h1198zM1452 879v-140h-1198v140h1198z" />
    <glyph glyph-name="greater" unicode="&#x3e;" horiz-adv-x="1706" 
d="M1442 676v-129l-1178 -484v154l971 393l-971 396v153z" />
    <glyph glyph-name="question" unicode="?" horiz-adv-x="1233" 
d="M432 526v361q23 -4 47.5 -6t48.5 -2q146 0 230 75.5t84 206.5q0 126 -71 201.5t-189 75.5q-112 0 -180.5 -61t-78.5 -169h-231q19 193 149.5 303.5t340.5 110.5q221 0 353 -126t132 -337q0 -195 -107 -311t-296 -127v-195h-232zM547 -16q-70 0 -118 48t-48 118
q0 69 48.5 117t117.5 48t117.5 -48t48.5 -117q0 -70 -48 -118t-118 -48z" />
    <glyph glyph-name="at" unicode="@" horiz-adv-x="2048" 
d="M1284 854l57 115h132l-146 -576q-4 -16 -6 -31t-2 -28q0 -46 25.5 -70t74.5 -24q48 0 102.5 26.5t106.5 75.5q80 76 125 186.5t45 233.5q0 259 -190.5 420t-499.5 161q-133 0 -246 -28t-211 -86q-191 -114 -296 -299.5t-105 -409.5q0 -177 61.5 -308t192.5 -230
q100 -77 236.5 -118.5t287.5 -41.5q169 0 328.5 49t292.5 141l55 -82q-148 -111 -314.5 -167t-349.5 -56q-190 0 -348 47t-280 140q-154 118 -230 274t-76 354q0 165 52 313t151 269q146 178 351.5 270t455.5 92q163 0 310 -45t253 -127q130 -100 197.5 -231t67.5 -283
q0 -175 -63.5 -315t-184.5 -236q-68 -54 -149.5 -83t-166.5 -29q-99 0 -149.5 39.5t-50.5 117.5v19q-55 -89 -129 -131.5t-172 -42.5q-153 0 -233.5 85t-80.5 247q0 235 138 394t339 159q85 0 145.5 -37.5t96.5 -112.5zM1190 475l59 236q-17 88 -68.5 136t-129.5 48
q-138 0 -232 -130t-94 -319q0 -105 48.5 -162t137.5 -57q97 0 174.5 69t104.5 179z" />
    <glyph glyph-name="A" unicode="A" horiz-adv-x="1518" 
d="M481 586h543l-272 784zM1225 0l-142 410h-661l-135 -410h-234l582 1587h244l583 -1587h-237z" />
    <glyph glyph-name="B" unicode="B" horiz-adv-x="1532" 
d="M473 205h195q273 0 374 60t101 208q0 153 -93.5 211.5t-381.5 58.5h-195v-538zM473 934h164q229 0 314 50.5t85 174.5q0 128 -74.5 176.5t-324.5 48.5h-164v-450zM1040 872q172 -35 255 -135t83 -272q0 -241 -156 -353t-495 -112h-481v1587h418q195 0 281 -14t142 -47
q89 -55 134 -141t45 -203q0 -121 -56.5 -198.5t-169.5 -111.5z" />
    <glyph glyph-name="C" unicode="C" horiz-adv-x="1366" 
d="M1278 111q-91 -73 -202 -108.5t-249 -35.5q-157 0 -288 55t-226 160q-104 117 -156.5 270t-52.5 343q0 187 52.5 343t154.5 273q90 104 218 157.5t286 53.5q125 0 231 -35t197 -106v-273q-87 106 -188 155.5t-228 49.5q-219 0 -352 -168.5t-133 -449.5
q0 -288 135.5 -453.5t368.5 -165.5q129 0 237 50t195 151v-266z" />
    <glyph glyph-name="D" unicode="D" horiz-adv-x="1702" 
d="M473 209h189q139 0 245 16t156 43q133 75 198.5 206t65.5 323q0 181 -66 315t-192 207q-52 30 -152 44.5t-260 14.5h-184v-1169zM246 0v1587h454q179 0 301 -20.5t197 -63.5q178 -103 271.5 -282.5t93.5 -421.5t-87 -417t-259 -282q-86 -53 -216.5 -76.5t-349.5 -23.5
h-405z" />
    <glyph glyph-name="E" unicode="E" horiz-adv-x="1628" 
d="M246 0v1587h1175v-207h-948v-450h893v-201h-893v-520h948v-209h-1175z" />
    <glyph glyph-name="F" unicode="F" horiz-adv-x="1450" 
d="M246 0v1587h1110v-207h-883v-471h825v-209h-825v-700h-227z" />
    <glyph glyph-name="G" unicode="G" horiz-adv-x="1602" 
d="M1503 825q0 -2 1 -6q3 -58 3 -88q0 -105 -17.5 -194t-51.5 -160q-100 -204 -255.5 -307t-363.5 -103q-155 0 -287 59t-229 171q-101 116 -151 264.5t-50 333.5q0 182 50.5 332.5t150.5 267.5q95 110 227 168.5t287 58.5q189 0 328.5 -76t245.5 -237l-174 -140
q-72 124 -169 184t-227 60q-219 0 -350 -167.5t-131 -450.5q0 -279 133 -449t348 -170q188 0 310.5 124.5t131.5 326.5h-401v198h641z" />
    <glyph glyph-name="H" unicode="H" horiz-adv-x="1706" 
d="M246 0v1587h227v-657h760v657h227v-1587h-227v721h-760v-721h-227z" />
    <glyph glyph-name="I" unicode="I" horiz-adv-x="721" 
d="M473 0h-227v1587h227v-1587z" />
    <glyph glyph-name="J" unicode="J" horiz-adv-x="1151" 
d="M29 250l168 119q30 -96 97 -144.5t167 -48.5q118 0 167.5 77.5t49.5 270.5v1063h227v-1112q0 -255 -110 -381.5t-332 -126.5q-151 0 -262.5 73t-171.5 210z" />
    <glyph glyph-name="K" unicode="K" horiz-adv-x="1522" 
d="M246 0v1587h229v-753l674 753h283l-705 -756l827 -831h-309l-770 791v-791h-229z" />
    <glyph glyph-name="L" unicode="L" horiz-adv-x="1395" 
d="M246 0v1587h227v-1378h907v-209h-1134z" />
    <glyph glyph-name="M" unicode="M" horiz-adv-x="2087" 
d="M934 0l-273 959q-4 15 -13 47q-62 216 -87 358q-12 -108 -27 -207.5t-32 -193.5l-176 -963h-209l311 1587h242l315 -1118q23 -86 37 -151t20 -119q7 54 20.5 119t37.5 151l313 1118h242l313 -1587h-209l-178 963q-13 69 -27 166.5t-30 234.5q-26 -148 -89 -366
q-8 -27 -12 -40l-272 -958h-217z" />
    <glyph glyph-name="N" unicode="N" horiz-adv-x="1647" 
d="M1171 0l-620 1059q-21 34 -45 88.5t-57 142.5q9 -58 13.5 -127t4.5 -211v-952h-221v1587h233l596 -1014q32 -55 64 -123t65 -148q-11 87 -16.5 172.5t-5.5 166.5v946h219v-1587h-230z" />
    <glyph glyph-name="O" unicode="O" horiz-adv-x="1554" 
d="M340 795q0 -286 118 -452.5t318 -166.5q199 0 317.5 167t118.5 450q0 284 -118.5 452t-317.5 168t-317.5 -167t-118.5 -451zM776 1622q151 0 273 -56.5t211 -166.5q95 -120 142.5 -271.5t47.5 -334.5q0 -185 -47 -334.5t-143 -270.5q-87 -108 -210 -164.5t-272 -56.5
t-271.5 56.5t-209.5 164.5q-97 122 -145 273t-48 334q0 182 48 334.5t143 271.5q88 109 209.5 165t271.5 56z" />
    <glyph glyph-name="P" unicode="P" horiz-adv-x="1526" 
d="M473 649v-649h-227v1587h563q288 0 440 -117t152 -340q0 -235 -158 -358t-463 -123h-307zM473 848h203q281 0 385 62t104 214q0 149 -97.5 207t-391.5 58h-203v-541z" />
    <glyph glyph-name="Q" unicode="Q" horiz-adv-x="1554" 
d="M948 217l-284 406h225l203 -287q57 78 88.5 198t31.5 259q0 284 -118.5 452t-317.5 168t-317.5 -167t-118.5 -451q0 -293 121.5 -457t337.5 -164q42 0 78 10.5t71 32.5zM1073 39q-62 -37 -133.5 -54.5t-161.5 -17.5q-149 0 -272.5 56.5t-208.5 162.5q-96 121 -144.5 273
t-48.5 336q0 181 48.5 333t144.5 273q85 108 207.5 164.5t271.5 56.5q151 0 274 -56.5t210 -164.5q95 -120 142.5 -272t47.5 -336q0 -199 -56 -359.5t-169 -288.5l217 -311h-225z" />
    <glyph glyph-name="R" unicode="R" horiz-adv-x="1546" 
d="M473 864h184q270 0 373 59.5t103 202.5q0 148 -94.5 205.5t-381.5 57.5h-184v-525zM786 1587q289 0 435.5 -117t146.5 -348q0 -203 -114 -316.5t-343 -137.5l609 -668h-295l-600 668h-152v-668h-227v1587h540z" />
    <glyph glyph-name="S" unicode="S" horiz-adv-x="1251" 
d="M104 373l195 67q37 -130 120 -198t204 -68q118 0 188 70.5t70 189.5q0 96 -57 157t-253 142q-227 93 -320 199t-93 264q0 186 123.5 306t318.5 120q132 0 240.5 -60t197.5 -182l-151 -149q-69 95 -140 141.5t-147 46.5q-97 0 -157 -55.5t-60 -144.5q0 -71 39 -123
t125 -95q77 -38 182 -81.5t127 -57.5q142 -92 196 -185.5t54 -238.5q0 -208 -133 -339.5t-344 -131.5q-204 0 -343.5 108t-181.5 298z" />
    <glyph glyph-name="T" unicode="T" horiz-adv-x="1417" 
d="M823 1378v-1378h-227v1378h-504v209h1233v-209h-502z" />
    <glyph glyph-name="U" unicode="U" horiz-adv-x="1622" 
d="M242 1587h227v-887q0 -262 85.5 -393t256.5 -131q172 0 257 130t85 394v887h227v-889q0 -358 -145 -544.5t-424 -186.5q-280 0 -424.5 186t-144.5 545v889z" />
    <glyph glyph-name="V" unicode="V" horiz-adv-x="1507" 
d="M860 0h-215l-594 1587h236l469 -1304l473 1304h227z" />
    <glyph glyph-name="W" unicode="W" horiz-adv-x="2048" 
d="M1149 1587l305 -1263l297 1263h207l-391 -1587h-215l-328 1339l-330 -1339h-215l-391 1587h207l297 -1263l305 1263h252z" />
    <glyph glyph-name="X" unicode="X" horiz-adv-x="1522" 
d="M14 0l613 842l-543 745h281l399 -553l403 553h254l-532 -735l616 -852h-288l-467 659l-478 -659h-258z" />
    <glyph glyph-name="Y" unicode="Y" horiz-adv-x="1479" 
d="M852 653v-653h-227v653l-625 934h274l469 -729l480 729h254z" />
    <glyph glyph-name="Z" unicode="Z" horiz-adv-x="1298" 
d="M61 0l768 1380h-700v207h1067l-768 -1378h786v-209h-1153z" />
    <glyph glyph-name="bracketleft" unicode="[" horiz-adv-x="868" 
d="M272 -166v1753h541v-102h-342v-1546h342v-105h-541z" />
    <glyph glyph-name="backslash" unicode="\" horiz-adv-x="639" 
d="M-137 1622h162l690 -1812h-160z" />
    <glyph glyph-name="bracketright" unicode="]" horiz-adv-x="868" 
d="M594 1587v-1753h-541v103h342v1546h-342v104h541z" />
    <glyph glyph-name="asciicircum" unicode="^" horiz-adv-x="2048" 
d="M1116 1458l510 -557h-180l-422 420l-424 -420h-180l510 557h186z" />
    <glyph glyph-name="underscore" unicode="_" 
d="M1024 -340v-143h-1024v143h1024z" />
    <glyph glyph-name="grave" unicode="`" 
d="M655 1350h-120l-285 350h201z" />
    <glyph glyph-name="a" unicode="a" horiz-adv-x="1206" 
d="M557 162q119 0 190.5 113t71.5 305q0 190 -70.5 302.5t-187.5 112.5q-119 0 -190.5 -112t-71.5 -303q0 -192 71 -305t187 -113zM832 0q3 69 9.5 135t16.5 131q-53 -145 -143 -222t-207 -77q-197 0 -316.5 170t-119.5 453q0 282 120.5 453t315.5 171q111 0 197 -61.5
t137 -177.5q-13 56 -20 113t-9 116h223v-1204h-204z" />
    <glyph glyph-name="b" unicode="b" horiz-adv-x="1253" 
d="M172 0v1612h221v-375q0 -85 -6.5 -148.5t-19.5 -113.5q50 116 136 177.5t197 61.5q195 0 316 -171t121 -453q0 -283 -120 -453t-317 -170q-117 0 -208 77.5t-144 221.5q12 -75 19 -140.5t9 -125.5h-204zM649 162q117 0 188.5 113.5t71.5 304.5t-71 303t-191 112
q-117 0 -188.5 -113t-71.5 -302q0 -192 71.5 -305t190.5 -113z" />
    <glyph glyph-name="c" unicode="c" horiz-adv-x="1069" 
d="M997 47q-55 -40 -139 -61t-186 -21q-278 0 -439 171t-161 466q0 291 159 464t424 173q98 0 185.5 -23t156.5 -67v-236q-66 64 -148 96.5t-175 32.5q-173 0 -272 -116.5t-99 -321.5q0 -208 103.5 -326t283.5 -118q86 0 160 32.5t147 102.5v-248z" />
    <glyph glyph-name="d" unicode="d" horiz-adv-x="1253" 
d="M606 162q120 0 191 113t71 305q0 189 -71 302t-189 113q-119 0 -190.5 -112t-71.5 -303t71.5 -304.5t188.5 -113.5zM879 0q2 59 9.5 125t18.5 141q-52 -144 -143 -221.5t-209 -77.5q-197 0 -316.5 170t-119.5 453q0 282 120.5 453t315.5 171q111 0 197 -61.5t137 -177.5
q-14 50 -20.5 113.5t-6.5 148.5v375h221v-1612h-204z" />
    <glyph glyph-name="e" unicode="e" horiz-adv-x="1139" 
d="M295 715h563q-15 165 -87.5 253.5t-192.5 88.5q-121 0 -194.5 -89t-88.5 -253zM1016 219q-82 -129 -187.5 -190.5t-244.5 -61.5q-239 0 -375.5 169t-136.5 466q0 293 135 464t364 171q233 0 365.5 -172.5t132.5 -478.5v-21h-772v-26q0 -169 82 -276t207 -107q83 0 148 42
t124 134z" />
    <glyph glyph-name="f" unicode="f" horiz-adv-x="702" 
d="M731 1583v-192q-31 19 -63 29t-64 10q-70 0 -108.5 -38.5t-38.5 -109.5v-192h250v-170h-250v-920h-228v920h-204v170h204v170q0 180 79 266t245 86q45 0 89 -7t89 -22z" />
    <glyph glyph-name="g" unicode="g" horiz-adv-x="1233" 
d="M590 221q119 0 190.5 108t71.5 292q0 183 -70.5 291t-187.5 108q-121 0 -191.5 -107.5t-70.5 -291.5t70 -292t188 -108zM342 -90q39 -69 90.5 -98t134.5 -29q142 0 208.5 88.5t66.5 275.5q0 27 -4 86v11q-49 -103 -127.5 -156t-180.5 -53q-188 0 -308 163t-120 427
q0 271 120.5 433.5t318.5 162.5q113 0 200.5 -70t139.5 -203q-15 69 -22 133t-7 123h217v-1020q0 -147 -26.5 -240t-86.5 -161q-65 -75 -166 -116.5t-221 -41.5q-169 0 -277.5 56.5t-154.5 168.5z" />
    <glyph glyph-name="h" unicode="h" horiz-adv-x="1237" 
d="M848 0v750q0 139 -43.5 204.5t-136.5 65.5q-123 0 -198 -117t-75 -315v-588h-223v1612h223v-406q0 -49 -6 -121t-18 -165q50 146 143 223.5t221 77.5q162 0 249 -109t87 -311v-801h-223z" />
    <glyph glyph-name="i" unicode="i" horiz-adv-x="555" 
d="M449 1466q0 -65 -48 -106t-125 -41q-76 0 -123 40.5t-47 106.5t46.5 106t123.5 40q78 0 125.5 -40t47.5 -106zM166 0v1165h223v-1165h-223z" />
    <glyph glyph-name="j" unicode="j" horiz-adv-x="555" 
d="M449 1466q0 -65 -48 -106t-125 -41q-76 0 -123 40.5t-47 106.5t46.5 106t123.5 40q78 0 125.5 -40t47.5 -106zM166 -375v1540h223v-1540h-223z" />
    <glyph glyph-name="k" unicode="k" horiz-adv-x="1139" 
d="M170 0v1612h223v-891l426 483h238l-416 -459l506 -745h-258l-397 602l-99 -106v-496h-223z" />
    <glyph glyph-name="l" unicode="l" horiz-adv-x="555" 
d="M166 0v1612h223v-1612h-223z" />
    <glyph glyph-name="m" unicode="m" horiz-adv-x="1847" 
d="M172 0v1204h202q-2 -81 -8.5 -159.5t-15.5 -153.5q50 161 143.5 245.5t221.5 84.5q112 0 190.5 -63t112.5 -181q70 126 152 185t188 59q152 0 236.5 -110.5t84.5 -309.5v-801h-223v750q0 140 -41.5 204t-132.5 64q-110 0 -178 -117t-68 -313v-588h-221v750
q0 139 -42 203.5t-134 64.5q-110 0 -177 -116.5t-67 -313.5v-588h-223z" />
    <glyph glyph-name="n" unicode="n" horiz-adv-x="1237" 
d="M848 0v750q0 139 -43.5 204.5t-136.5 65.5q-123 0 -198 -117t-75 -315v-588h-223v1204h202q-2 -81 -8.5 -159.5t-15.5 -153.5q55 162 153 246t232 84q162 0 249 -109t87 -311v-801h-223z" />
    <glyph glyph-name="o" unicode="o" horiz-adv-x="1141" 
d="M569 166q123 0 196 118t73 320q0 200 -73 319t-194 119q-122 0 -194 -117.5t-72 -320.5q0 -201 72 -319.5t192 -118.5zM569 -33q-228 0 -362.5 171.5t-134.5 463.5t134.5 463.5t362.5 171.5q229 0 364.5 -172t135.5 -463t-135.5 -463t-364.5 -172z" />
    <glyph glyph-name="p" unicode="p" horiz-adv-x="1253" 
d="M647 195q120 0 191 113t71 304q0 190 -71 303t-189 113q-119 0 -190.5 -112t-71.5 -304q0 -190 71.5 -303.5t188.5 -113.5zM348 926q53 144 144 221.5t208 77.5q197 0 317 -170t120 -453q0 -282 -121 -454.5t-316 -172.5q-110 0 -196.5 62.5t-136.5 179.5
q13 -50 19.5 -113.5t6.5 -148.5v-330h-221v1579h205q-3 -68 -10 -137.5t-19 -140.5z" />
    <glyph glyph-name="q" unicode="q" horiz-adv-x="1253" 
d="M608 195q117 0 188.5 113.5t71.5 303.5q0 192 -71 304t-191 112q-117 0 -188.5 -113t-71.5 -303q0 -191 71.5 -304t190.5 -113zM889 217q-51 -117 -137 -179.5t-197 -62.5q-194 0 -315 172.5t-121 454.5q0 283 119.5 453t316.5 170q118 0 209 -77.5t143 -221.5
q-11 71 -18.5 140.5t-9.5 137.5h204v-1579h-221v330q0 85 6.5 148.5t20.5 113.5z" />
    <glyph glyph-name="r" unicode="r" horiz-adv-x="750" 
d="M170 0v1204h215q-1 -68 -6 -144t-14 -169q60 169 138 249.5t181 80.5q25 0 53.5 -6.5t67.5 -20.5l-51 -250q-30 15 -55 22t-50 7q-117 0 -186.5 -116t-69.5 -314v-543h-223z" />
    <glyph glyph-name="s" unicode="s" horiz-adv-x="1038" 
d="M754 897q-63 81 -128.5 119.5t-142.5 38.5t-127.5 -40.5t-50.5 -101.5q0 -50 34.5 -84.5t113.5 -60.5q12 -4 37 -12q198 -65 251 -94q119 -66 166 -137.5t47 -180.5q0 -170 -115.5 -273.5t-308.5 -103.5q-143 0 -260 57t-204 169l155 137q61 -85 141 -129.5t173 -44.5
q96 0 156.5 46t60.5 120q0 59 -42.5 100.5t-136.5 73.5q-38 13 -107 35q-148 48 -187 73q-94 58 -134.5 123t-40.5 156q0 154 108.5 254t276.5 100q132 0 238 -52.5t180 -154.5z" />
    <glyph glyph-name="t" unicode="t" horiz-adv-x="657" 
d="M440 1587v-383h222v-170h-222v-1034h-223v1034h-223v170h223v383h223z" />
    <glyph glyph-name="u" unicode="u" horiz-adv-x="1237" 
d="M1069 471q0 -239 -118.5 -371.5t-332.5 -132.5q-213 0 -331.5 132.5t-118.5 371.5v733h223v-723q0 -158 57 -236.5t170 -78.5q114 0 171 78.5t57 236.5v723h223v-733z" />
    <glyph glyph-name="v" unicode="v" horiz-adv-x="1071" 
d="M416 0l-385 1204h239l176 -616q22 -76 44.5 -166.5t46.5 -190.5l21 86q53 218 69 271l180 616h231l-385 -1204h-237z" />
    <glyph glyph-name="w" unicode="w" horiz-adv-x="1640" 
d="M932 1204l221 -1020q13 82 27 152t28 129l181 739h204l-323 -1204h-228l-155 643l-1 1q-53 217 -67 355q-9 -78 -25 -165.5t-40 -186.5l-156 -647h-229l-324 1204h205l235 -1020q8 53 21.5 120t36.5 169l164 731h225z" />
    <glyph glyph-name="x" unicode="x" horiz-adv-x="1014" 
d="M-6 0l368 614l-352 590h260l236 -418l239 418h238l-344 -571l381 -633h-262l-258 457l-264 -457h-242z" />
    <glyph glyph-name="y" unicode="y" horiz-adv-x="1053" 
d="M1042 1204l-596 -1579h-243l200 504l-378 1075h251l254 -801l277 801h235z" />
    <glyph glyph-name="z" unicode="z" horiz-adv-x="967" 
d="M16 0l551 1014h-481v190h834l-551 -1014h526v-190h-879z" />
    <glyph glyph-name="braceleft" unicode="{" 
d="M866 1327h-41q-120 0 -161 -44.5t-41 -184.5v-242q0 -160 -44.5 -228t-156.5 -98q113 -28 157 -96t44 -229v-242q0 -141 41.5 -185t162.5 -44h39v-148h-43q-108 0 -169 11.5t-103 37.5q-55 34 -77.5 97t-22.5 211v245q0 149 -54.5 210t-185.5 61q-7 0 -21.5 -1t-21.5 -1
v149q8 0 23 -1t22 -1q130 0 184 60.5t54 207.5v246q0 148 22.5 210.5t77.5 96.5q45 28 108.5 40t169.5 12h37v-150z" />
    <glyph glyph-name="bar" unicode="|" 
d="M588 1565v-2048h-150v2048h150z" />
    <glyph glyph-name="braceright" unicode="}" 
d="M575 1118v-246q0 -147 54 -207.5t184 -60.5q7 0 22 1t23 1v-149q-7 0 -22 1t-21 1q-132 0 -186 -60.5t-54 -210.5v-245q0 -148 -22.5 -211t-77.5 -97q-42 -26 -103 -37.5t-169 -11.5h-43v148h39q120 0 162 45t42 186v240q0 160 44.5 228t156.5 97q-112 30 -156.5 98
t-44.5 228v242q0 140 -42 184.5t-162 44.5h-39v150h37q107 0 171 -12.5t107 -39.5q55 -34 77.5 -96.5t22.5 -210.5z" />
    <glyph glyph-name="asciitilde" unicode="~" horiz-adv-x="1706" 
d="M1530 614q-104 -72 -199 -106.5t-190 -34.5q-93 0 -256 58q-22 8 -34 12q-5 2 -15 5q-176 60 -273 60q-84 0 -175 -37t-210 -120v155q106 72 202 108t185 36q62 0 127.5 -13.5t163.5 -48.5q16 -5 47 -17q159 -57 240 -57q88 0 179.5 37t207.5 119v-156z" />
    <glyph glyph-name="Adieresis" unicode="&#xc4;" horiz-adv-x="1518" 
d="M481 586h543l-272 784zM1225 0l-142 410h-661l-135 -410h-234l582 1587h244l583 -1587h-237zM838 1863q0 45 34.5 79t80.5 34q45 0 77.5 -33t32.5 -80q0 -49 -31 -80.5t-79 -31.5q-49 0 -82 32t-33 80zM455 1863q0 46 33.5 79.5t78.5 33.5q47 0 80 -33t33 -80
q0 -49 -31.5 -80.5t-81.5 -31.5q-49 0 -80.5 31.5t-31.5 80.5z" />
    <glyph glyph-name="Aring" unicode="&#xc5;" horiz-adv-x="1518" 
d="M647 1765q0 -46 32.5 -78t78.5 -32t78 32t32 78t-32 78.5t-78 32.5t-78.5 -32.5t-32.5 -78.5zM481 586h543l-272 784zM1225 0l-142 403h-661l-135 -403h-234l582 1563h88q-78 15 -125 70.5t-47 131.5q0 88 59.5 147.5t147.5 59.5q86 0 146.5 -60.5t60.5 -146.5
q0 -76 -46 -130t-126 -72h86l583 -1563h-237z" />
    <glyph glyph-name="Ccedilla" unicode="&#xc7;" horiz-adv-x="1366" 
d="M1278 111q-91 -73 -202 -108.5t-249 -35.5q-157 0 -288 55t-226 160q-104 117 -156.5 270t-52.5 343q0 187 52.5 343t154.5 273q90 104 218 157.5t286 53.5q125 0 231 -35t197 -106v-273q-87 106 -188 155.5t-228 49.5q-219 0 -352 -168.5t-133 -449.5
q0 -288 135.5 -453.5t368.5 -165.5q129 0 237 50t195 151v-266zM594 -387v92q75 -18 138.5 -27.5t109.5 -9.5q48 0 75 20t27 56q0 40 -31 59t-96 19q-20 0 -30.5 -0.5t-19.5 -1.5l-1 180h74v-92h29q101 0 155.5 -41t54.5 -117q0 -87 -59.5 -131.5t-177.5 -44.5
q-50 0 -113 10t-135 29z" />
    <glyph glyph-name="Eacute" unicode="&#xc9;" horiz-adv-x="1628" 
d="M246 0v1587h1175v-207h-948v-450h893v-201h-893v-520h948v-209h-1175zM699 1700l204 350h201l-285 -350h-120z" />
    <glyph glyph-name="Ntilde" unicode="&#xd1;" horiz-adv-x="1647" 
d="M1171 0l-620 1059q-21 34 -45 88.5t-57 142.5q9 -58 13.5 -127t4.5 -211v-952h-221v1587h233l596 -1014q32 -55 64 -123t65 -148q-11 87 -16.5 172.5t-5.5 166.5v946h219v-1587h-230zM1116 1976q-20 -100 -70.5 -153.5t-126.5 -53.5q-13 0 -29.5 2.5t-36.5 8.5l-96 28
q-13 4 -25.5 6t-23.5 2q-30 0 -53 -18t-37 -53h-88q18 100 68 153.5t125 53.5q17 0 32 -2.5t27 -6.5l98 -28q23 -6 34 -8.5t20 -2.5q33 0 56.5 18t37.5 54h88z" />
    <glyph glyph-name="Odieresis" unicode="&#xd6;" horiz-adv-x="1554" 
d="M340 795q0 -286 118 -452.5t318 -166.5q199 0 317.5 167t118.5 450q0 284 -118.5 452t-317.5 168t-317.5 -167t-118.5 -451zM776 1622q151 0 273 -56.5t211 -166.5q95 -120 142.5 -271.5t47.5 -334.5q0 -185 -47 -334.5t-143 -270.5q-87 -108 -210 -164.5t-272 -56.5
t-271.5 56.5t-209.5 164.5q-97 122 -145 273t-48 334q0 182 48 334.5t143 271.5q88 109 209.5 165t271.5 56zM856 1863q0 45 34.5 79t80.5 34q45 0 77.5 -33t32.5 -80q0 -49 -31 -80.5t-79 -31.5q-49 0 -82 32t-33 80zM473 1863q0 46 33.5 79.5t78.5 33.5q47 0 80 -33
t33 -80q0 -49 -31.5 -80.5t-81.5 -31.5q-49 0 -80.5 31.5t-31.5 80.5z" />
    <glyph glyph-name="Udieresis" unicode="&#xdc;" horiz-adv-x="1622" 
d="M242 1587h227v-887q0 -262 85.5 -393t256.5 -131q172 0 257 130t85 394v887h227v-889q0 -358 -145 -544.5t-424 -186.5q-280 0 -424.5 186t-144.5 545v889zM889 1863q0 45 34.5 79t80.5 34q45 0 77.5 -33t32.5 -80q0 -49 -31 -80.5t-79 -31.5q-49 0 -82 32t-33 80z
M506 1863q0 46 33.5 79.5t78.5 33.5q47 0 80 -33t33 -80q0 -49 -31.5 -80.5t-81.5 -31.5q-49 0 -80.5 31.5t-31.5 80.5z" />
    <glyph glyph-name="aacute" unicode="&#xe1;" horiz-adv-x="1206" 
d="M557 162q119 0 190.5 113t71.5 305q0 190 -70.5 302.5t-187.5 112.5q-119 0 -190.5 -112t-71.5 -303q0 -192 71 -305t187 -113zM832 0q3 69 9.5 135t16.5 131q-53 -145 -143 -222t-207 -77q-197 0 -316.5 170t-119.5 453q0 282 120.5 453t315.5 171q111 0 197 -61.5
t137 -177.5q-13 56 -20 113t-9 116h223v-1204h-204zM447 1350l204 350h201l-285 -350h-120z" />
    <glyph glyph-name="agrave" unicode="&#xe0;" horiz-adv-x="1206" 
d="M557 162q119 0 190.5 113t71.5 305q0 190 -70.5 302.5t-187.5 112.5q-119 0 -190.5 -112t-71.5 -303q0 -192 71 -305t187 -113zM832 0q3 69 9.5 135t16.5 131q-53 -145 -143 -222t-207 -77q-197 0 -316.5 170t-119.5 453q0 282 120.5 453t315.5 171q111 0 197 -61.5
t137 -177.5q-13 56 -20 113t-9 116h223v-1204h-204zM733 1350h-120l-285 350h201z" />
    <glyph glyph-name="acircumflex" unicode="&#xe2;" horiz-adv-x="1206" 
d="M557 162q119 0 190.5 113t71.5 305q0 190 -70.5 302.5t-187.5 112.5q-119 0 -190.5 -112t-71.5 -303q0 -192 71 -305t187 -113zM832 0q3 69 9.5 135t16.5 131q-53 -145 -143 -222t-207 -77q-197 0 -316.5 170t-119.5 453q0 282 120.5 453t315.5 171q111 0 197 -61.5
t137 -177.5q-13 56 -20 113t-9 116h223v-1204h-204zM295 1350l197 350h196l197 -350h-123l-172 229l-174 -229h-121z" />
    <glyph glyph-name="adieresis" unicode="&#xe4;" horiz-adv-x="1206" 
d="M557 162q119 0 190.5 113t71.5 305q0 190 -70.5 302.5t-187.5 112.5q-119 0 -190.5 -112t-71.5 -303q0 -192 71 -305t187 -113zM832 0q3 69 9.5 135t16.5 131q-53 -145 -143 -222t-207 -77q-197 0 -316.5 170t-119.5 453q0 282 120.5 453t315.5 171q111 0 197 -61.5
t137 -177.5q-13 56 -20 113t-9 116h223v-1204h-204zM668 1513q0 45 34.5 79t80.5 34q45 0 77.5 -33t32.5 -80q0 -49 -31 -80.5t-79 -31.5q-49 0 -82 32t-33 80zM285 1513q0 46 33.5 79.5t78.5 33.5q47 0 80 -33t33 -80q0 -49 -31.5 -80.5t-81.5 -31.5q-49 0 -80.5 31.5
t-31.5 80.5z" />
    <glyph glyph-name="atilde" unicode="&#xe3;" horiz-adv-x="1206" 
d="M557 162q119 0 190.5 113t71.5 305q0 190 -70.5 302.5t-187.5 112.5q-119 0 -190.5 -112t-71.5 -303q0 -192 71 -305t187 -113zM832 0q3 69 9.5 135t16.5 131q-53 -145 -143 -222t-207 -77q-197 0 -316.5 170t-119.5 453q0 282 120.5 453t315.5 171q111 0 197 -61.5
t137 -177.5q-13 56 -20 113t-9 116h223v-1204h-204zM883 1626q-20 -100 -70.5 -153.5t-126.5 -53.5q-13 0 -29.5 2.5t-36.5 8.5l-96 28q-13 4 -25.5 6t-23.5 2q-30 0 -53 -18t-37 -53h-88q18 100 68 153.5t125 53.5q17 0 32 -2.5t27 -6.5l98 -28q23 -6 34 -8.5t20 -2.5
q33 0 56.5 18t37.5 54h88z" />
    <glyph glyph-name="aring" unicode="&#xe5;" horiz-adv-x="1206" 
d="M453 1532q0 -57 39 -96t96 -39q55 0 94 39t39 96q0 56 -39 95.5t-94 39.5q-57 0 -96 -39t-39 -96zM334 1534q0 106 73 179t179 73t180 -73t74 -179t-74 -180t-180 -74t-179 74t-73 180zM557 162q119 0 190.5 113t71.5 305q0 190 -70.5 302.5t-187.5 112.5
q-119 0 -190.5 -112t-71.5 -303q0 -192 71 -305t187 -113zM832 0q3 69 9.5 135t16.5 131q-53 -145 -143 -222t-207 -77q-197 0 -316.5 170t-119.5 453q0 282 120.5 453t315.5 171q111 0 197 -61.5t137 -177.5q-13 56 -20 113t-9 116h223v-1204h-204z" />
    <glyph glyph-name="ccedilla" unicode="&#xe7;" horiz-adv-x="1069" 
d="M997 47q-55 -40 -139 -61t-186 -21q-278 0 -439 171t-161 466q0 291 159 464t424 173q98 0 185.5 -23t156.5 -67v-236q-66 64 -148 96.5t-175 32.5q-173 0 -272 -116.5t-99 -321.5q0 -208 103.5 -326t283.5 -118q86 0 160 32.5t147 102.5v-248zM434 -387v92
q75 -18 138.5 -27.5t109.5 -9.5q48 0 75 20t27 56q0 40 -31 59t-96 19q-20 0 -30.5 -0.5t-19.5 -1.5l-1 180h74v-92h29q101 0 155.5 -41t54.5 -117q0 -87 -59.5 -131.5t-177.5 -44.5q-50 0 -113 10t-135 29z" />
    <glyph glyph-name="eacute" unicode="&#xe9;" horiz-adv-x="1139" 
d="M295 715h563q-15 165 -87.5 253.5t-192.5 88.5q-121 0 -194.5 -89t-88.5 -253zM1016 219q-82 -129 -187.5 -190.5t-244.5 -61.5q-239 0 -375.5 169t-136.5 466q0 293 135 464t364 171q233 0 365.5 -172.5t132.5 -478.5v-21h-772v-26q0 -169 82 -276t207 -107q83 0 148 42
t124 134zM445 1350l204 350h201l-285 -350h-120z" />
    <glyph glyph-name="egrave" unicode="&#xe8;" horiz-adv-x="1139" 
d="M295 715h563q-15 165 -87.5 253.5t-192.5 88.5q-121 0 -194.5 -89t-88.5 -253zM1016 219q-82 -129 -187.5 -190.5t-244.5 -61.5q-239 0 -375.5 169t-136.5 466q0 293 135 464t364 171q233 0 365.5 -172.5t132.5 -478.5v-21h-772v-26q0 -169 82 -276t207 -107q83 0 148 42
t124 134zM731 1350h-120l-285 350h201z" />
    <glyph glyph-name="ecircumflex" unicode="&#xea;" horiz-adv-x="1139" 
d="M295 715h563q-15 165 -87.5 253.5t-192.5 88.5q-121 0 -194.5 -89t-88.5 -253zM1016 219q-82 -129 -187.5 -190.5t-244.5 -61.5q-239 0 -375.5 169t-136.5 466q0 293 135 464t364 171q233 0 365.5 -172.5t132.5 -478.5v-21h-772v-26q0 -169 82 -276t207 -107q83 0 148 42
t124 134zM293 1350l197 350h196l197 -350h-123l-172 229l-174 -229h-121z" />
    <glyph glyph-name="edieresis" unicode="&#xeb;" horiz-adv-x="1139" 
d="M295 715h563q-15 165 -87.5 253.5t-192.5 88.5q-121 0 -194.5 -89t-88.5 -253zM1016 219q-82 -129 -187.5 -190.5t-244.5 -61.5q-239 0 -375.5 169t-136.5 466q0 293 135 464t364 171q233 0 365.5 -172.5t132.5 -478.5v-21h-772v-26q0 -169 82 -276t207 -107q83 0 148 42
t124 134zM666 1513q0 45 34.5 79t80.5 34q45 0 77.5 -33t32.5 -80q0 -49 -31 -80.5t-79 -31.5q-49 0 -82 32t-33 80zM283 1513q0 46 33.5 79.5t78.5 33.5q47 0 80 -33t33 -80q0 -49 -31.5 -80.5t-81.5 -31.5q-49 0 -80.5 31.5t-31.5 80.5z" />
    <glyph glyph-name="iacute" unicode="&#xed;" horiz-adv-x="555" 
d="M166 0v1165h223v-1165h-223zM136 1350l204 350h201l-285 -350h-120z" />
    <glyph glyph-name="igrave" unicode="&#xec;" horiz-adv-x="555" 
d="M166 0v1165h223v-1165h-223zM422 1350h-120l-285 350h201z" />
    <glyph glyph-name="icircumflex" unicode="&#xee;" horiz-adv-x="555" 
d="M166 0v1165h223v-1165h-223zM-16 1350l197 350h196l197 -350h-123l-172 229l-174 -229h-121z" />
    <glyph glyph-name="idieresis" unicode="&#xef;" horiz-adv-x="555" 
d="M166 0v1165h223v-1165h-223zM357 1513q0 45 34.5 79t80.5 34q45 0 77.5 -33t32.5 -80q0 -49 -31 -80.5t-79 -31.5q-49 0 -82 32t-33 80zM-26 1513q0 46 33.5 79.5t78.5 33.5q47 0 80 -33t33 -80q0 -49 -31.5 -80.5t-81.5 -31.5q-49 0 -80.5 31.5t-31.5 80.5z" />
    <glyph glyph-name="ntilde" unicode="&#xf1;" horiz-adv-x="1237" 
d="M848 0v750q0 139 -43.5 204.5t-136.5 65.5q-123 0 -198 -117t-75 -315v-588h-223v1204h202q-2 -81 -8.5 -159.5t-15.5 -153.5q55 162 153 246t232 84q162 0 249 -109t87 -311v-801h-223zM936 1626q-20 -100 -70.5 -153.5t-126.5 -53.5q-13 0 -29.5 2.5t-36.5 8.5l-96 28
q-13 4 -25.5 6t-23.5 2q-30 0 -53 -18t-37 -53h-88q18 100 68 153.5t125 53.5q17 0 32 -2.5t27 -6.5l98 -28q23 -6 34 -8.5t20 -2.5q33 0 56.5 18t37.5 54h88z" />
    <glyph glyph-name="oacute" unicode="&#xf3;" horiz-adv-x="1141" 
d="M569 166q123 0 196 118t73 320q0 200 -73 319t-194 119q-122 0 -194 -117.5t-72 -320.5q0 -201 72 -319.5t192 -118.5zM569 -33q-228 0 -362.5 171.5t-134.5 463.5t134.5 463.5t362.5 171.5q229 0 364.5 -172t135.5 -463t-135.5 -463t-364.5 -172zM428 1350l204 350h201
l-285 -350h-120z" />
    <glyph glyph-name="ograve" unicode="&#xf2;" horiz-adv-x="1141" 
d="M569 166q123 0 196 118t73 320q0 200 -73 319t-194 119q-122 0 -194 -117.5t-72 -320.5q0 -201 72 -319.5t192 -118.5zM569 -33q-228 0 -362.5 171.5t-134.5 463.5t134.5 463.5t362.5 171.5q229 0 364.5 -172t135.5 -463t-135.5 -463t-364.5 -172zM714 1350h-120
l-285 350h201z" />
    <glyph glyph-name="ocircumflex" unicode="&#xf4;" horiz-adv-x="1141" 
d="M569 166q123 0 196 118t73 320q0 200 -73 319t-194 119q-122 0 -194 -117.5t-72 -320.5q0 -201 72 -319.5t192 -118.5zM569 -33q-228 0 -362.5 171.5t-134.5 463.5t134.5 463.5t362.5 171.5q229 0 364.5 -172t135.5 -463t-135.5 -463t-364.5 -172zM276 1350l197 350h196
l197 -350h-123l-172 229l-174 -229h-121z" />
    <glyph glyph-name="odieresis" unicode="&#xf6;" horiz-adv-x="1141" 
d="M569 166q123 0 196 118t73 320q0 200 -73 319t-194 119q-122 0 -194 -117.5t-72 -320.5q0 -201 72 -319.5t192 -118.5zM569 -33q-228 0 -362.5 171.5t-134.5 463.5t134.5 463.5t362.5 171.5q229 0 364.5 -172t135.5 -463t-135.5 -463t-364.5 -172zM649 1513q0 45 34.5 79
t80.5 34q45 0 77.5 -33t32.5 -80q0 -49 -31 -80.5t-79 -31.5q-49 0 -82 32t-33 80zM266 1513q0 46 33.5 79.5t78.5 33.5q47 0 80 -33t33 -80q0 -49 -31.5 -80.5t-81.5 -31.5q-49 0 -80.5 31.5t-31.5 80.5z" />
    <glyph glyph-name="otilde" unicode="&#xf5;" horiz-adv-x="1141" 
d="M569 166q123 0 196 118t73 320q0 200 -73 319t-194 119q-122 0 -194 -117.5t-72 -320.5q0 -201 72 -319.5t192 -118.5zM569 -33q-228 0 -362.5 171.5t-134.5 463.5t134.5 463.5t362.5 171.5q229 0 364.5 -172t135.5 -463t-135.5 -463t-364.5 -172zM864 1626
q-20 -100 -70.5 -153.5t-126.5 -53.5q-13 0 -29.5 2.5t-36.5 8.5l-96 28q-13 4 -25.5 6t-23.5 2q-30 0 -53 -18t-37 -53h-88q18 100 68 153.5t125 53.5q17 0 32 -2.5t27 -6.5l98 -28q23 -6 34 -8.5t20 -2.5q33 0 56.5 18t37.5 54h88z" />
    <glyph glyph-name="uacute" unicode="&#xfa;" horiz-adv-x="1237" 
d="M1069 471q0 -239 -118.5 -371.5t-332.5 -132.5q-213 0 -331.5 132.5t-118.5 371.5v733h223v-723q0 -158 57 -236.5t170 -78.5q114 0 171 78.5t57 236.5v723h223v-733zM475 1350l204 350h201l-285 -350h-120z" />
    <glyph glyph-name="ugrave" unicode="&#xf9;" horiz-adv-x="1237" 
d="M1069 471q0 -239 -118.5 -371.5t-332.5 -132.5q-213 0 -331.5 132.5t-118.5 371.5v733h223v-723q0 -158 57 -236.5t170 -78.5q114 0 171 78.5t57 236.5v723h223v-733zM761 1350h-120l-285 350h201z" />
    <glyph glyph-name="ucircumflex" unicode="&#xfb;" horiz-adv-x="1237" 
d="M1069 471q0 -239 -118.5 -371.5t-332.5 -132.5q-213 0 -331.5 132.5t-118.5 371.5v733h223v-723q0 -158 57 -236.5t170 -78.5q114 0 171 78.5t57 236.5v723h223v-733zM323 1350l197 350h196l197 -350h-123l-172 229l-174 -229h-121z" />
    <glyph glyph-name="udieresis" unicode="&#xfc;" horiz-adv-x="1237" 
d="M1069 471q0 -239 -118.5 -371.5t-332.5 -132.5q-213 0 -331.5 132.5t-118.5 371.5v733h223v-723q0 -158 57 -236.5t170 -78.5q114 0 171 78.5t57 236.5v723h223v-733zM696 1513q0 45 34.5 79t80.5 34q45 0 77.5 -33t32.5 -80q0 -49 -31 -80.5t-79 -31.5q-49 0 -82 32
t-33 80zM313 1513q0 46 33.5 79.5t78.5 33.5q47 0 80 -33t33 -80q0 -49 -31.5 -80.5t-81.5 -31.5q-49 0 -80.5 31.5t-31.5 80.5z" />
    <glyph glyph-name="dagger" unicode="&#x2020;" horiz-adv-x="920" 
d="M422 -186q-12 356 -27.5 545.5t-40.5 320.5q18 61 35 157t35 232l-369 -76v224l371 -72l-70 477h203l-67 -477l368 72v-224l-366 76q20 -150 35.5 -240t31.5 -149q-26 -145 -42 -339.5t-25 -526.5h-72z" />
    <glyph glyph-name="degree" unicode="&#xb0;" horiz-adv-x="674" 
d="M530 1169q0 81 -55.5 137t-136.5 56t-138 -56t-57 -137t57 -138.5t138 -57.5t136.5 57.5t55.5 138.5zM338 1456q118 0 202.5 -84.5t84.5 -204.5q0 -119 -84 -202.5t-205 -83.5t-204 83t-83 203t84.5 204.5t204.5 84.5z" />
    <glyph glyph-name="cent" unicode="&#xa2;" horiz-adv-x="1110" 
d="M727 1065q-10 1 -20.5 1.5t-30.5 0.5q-170 0 -270.5 -115t-100.5 -309q0 -114 37.5 -203.5t112.5 -154.5zM564 227q32 -7 59.5 -10.5t50.5 -3.5q95 0 179 44.5t155 131.5v-248q-84 -59 -181 -87.5t-211 -28.5q-26 0 -56.5 4.5t-61.5 13.5l-90 -256h-127l104 297
q-143 74 -224 222t-81 335q0 137 40 249t120 197q76 83 177.5 126.5t217.5 43.5q33 0 71 -4t82 -12l89 252h127l-103 -293q24 -11 49.5 -25.5t57.5 -33.5v-250q-36 43 -77.5 76.5t-88.5 58.5z" />
    <glyph glyph-name="sterling" unicode="&#xa3;" horiz-adv-x="1110" 
d="M55 -33v240q108 13 157.5 91t49.5 232q0 20 -2 51.5t-8 112.5h-197v152h191q-23 117 -32 184t-9 113q0 206 120 328t322 122q170 0 281 -98t143 -276l-205 -39q-23 114 -79.5 167.5t-153.5 53.5t-151 -67t-54 -189q0 -47 7.5 -117t25.5 -182h309v-152h-297q2 -20 3 -43
t1 -67q0 -91 -14.5 -165.5t-44.5 -133.5q74 -56 145 -85.5t133 -29.5q85 0 134 53.5t69 167.5l188 -53q-27 -184 -120.5 -278.5t-247.5 -94.5q-105 0 -199.5 38t-177.5 114q-61 -76 -128 -113t-146 -37h-13z" />
    <glyph glyph-name="section" unicode="&#xa7;" horiz-adv-x="1014" 
d="M653 504q65 0 105.5 39.5t40.5 101.5q0 47 -30.5 92.5t-88.5 85.5q-95 66 -178.5 100.5t-145.5 34.5q-65 0 -106 -39.5t-41 -103.5q0 -46 31.5 -91.5t89.5 -84.5q96 -65 179.5 -100t143.5 -35zM123 35l139 98q45 -81 110.5 -122.5t149.5 -41.5q81 0 128.5 41t47.5 109
q0 63 -38 112.5t-119 92.5l-185 94q-156 81 -227.5 164.5t-71.5 183.5q0 114 62.5 184t185.5 94q-72 59 -107.5 125t-35.5 142q0 137 95.5 224t248.5 87q119 0 211 -54.5t145 -156.5l-129 -96q-55 82 -112.5 121t-124.5 39q-73 0 -117.5 -42.5t-44.5 -109.5q0 -63 42 -116.5
t122 -92.5l194 -98q135 -68 198.5 -147.5t63.5 -180.5q0 -112 -60 -181t-181 -95q76 -56 114.5 -129t38.5 -160q0 -141 -95 -226t-255 -85q-130 0 -231.5 57.5t-161.5 165.5z" />
    <glyph glyph-name="bullet" unicode="&#x2022;" horiz-adv-x="1208" 
d="M307 762q0 123 87 209t210 86q122 0 208.5 -86.5t86.5 -208.5t-87.5 -209.5t-209.5 -87.5q-123 0 -209 87t-86 210z" />
    <glyph glyph-name="paragraph" unicode="&#xb6;" 
d="M958 1393h-120v-1393h-111v1393h-176v-1393h-113v782q-170 8 -271 102.5t-101 245.5q0 157 107.5 253t285.5 96h499v-86z" />
    <glyph glyph-name="germandbls" unicode="&#xdf;" horiz-adv-x="1214" 
d="M567 197q31 -24 62 -35.5t65 -11.5q88 0 140.5 74.5t52.5 201.5q0 164 -73.5 249.5t-215.5 88.5v186q91 4 144 71t53 179q0 116 -55 181t-152 65q-93 0 -144 -70.5t-51 -199.5v-1176h-221v1165q0 218 107.5 332.5t312.5 114.5q193 0 306.5 -110t113.5 -298
q0 -116 -51 -200.5t-150 -133.5q144 -17 227.5 -136t83.5 -306q0 -212 -111 -336.5t-298 -124.5q-57 0 -109.5 13.5t-103.5 39.5z" />
    <glyph glyph-name="registered" unicode="&#xae;" horiz-adv-x="1706" 
d="M844 1057h-129v-277h133q113 0 162 31.5t49 101.5q0 76 -51 110t-164 34zM872 1159q174 0 261.5 -57.5t87.5 -171.5q0 -89 -50 -148t-141 -77l187 -381h-177l-170 356h-155v-356h-158v835h315zM1493 721q0 134 -46.5 251t-135.5 206q-92 93 -208.5 141.5t-248.5 48.5
q-130 0 -245 -47t-201 -135q-94 -95 -144.5 -214t-50.5 -245q0 -125 48.5 -240.5t139.5 -207.5q90 -92 206.5 -141.5t240.5 -49.5q130 0 246.5 48t212.5 140q90 88 138 202.5t48 242.5zM852 1464q151 0 286 -56t240 -163q103 -104 158 -238t55 -280q0 -151 -55 -283.5
t-160 -234.5q-109 -106 -244.5 -162.5t-279.5 -56.5q-147 0 -280.5 56.5t-239.5 164.5q-105 106 -160 238.5t-55 277.5q0 146 57.5 282.5t165.5 245.5q101 103 231.5 156t280.5 53z" />
    <glyph glyph-name="copyright" unicode="&#xa9;" horiz-adv-x="1706" 
d="M1053 907q-13 77 -66 118.5t-139 41.5q-105 0 -165 -90.5t-60 -249.5q0 -157 62 -244.5t173 -87.5q82 0 136.5 47t68.5 129h145q-9 -130 -107.5 -211t-248.5 -81q-182 0 -285.5 120t-103.5 334q0 200 109 322.5t286 122.5q142 0 236.5 -75t105.5 -196h-147zM1493 727
q0 130 -47.5 246.5t-136.5 206.5q-93 92 -209 140t-246 48q-129 0 -243.5 -47t-204.5 -137q-93 -93 -143 -211.5t-50 -245.5q0 -126 49 -242t141 -209q92 -91 207.5 -139.5t243.5 -48.5q125 0 242 49t213 142q90 88 137 202.5t47 245.5zM852 1464q152 0 285.5 -54.5
t238.5 -160.5q104 -103 159.5 -238.5t55.5 -283.5q0 -149 -54.5 -281.5t-158.5 -234.5q-110 -107 -245.5 -164t-280.5 -57t-278.5 56t-239.5 163q-106 105 -161.5 238.5t-55.5 279.5q0 147 56 281.5t163 242.5q104 104 236 158.5t280 54.5z" />
    <glyph glyph-name="trademark" unicode="&#x2122;" horiz-adv-x="1706" 
d="M963 1458l151 -385l141 385h150v-538h-98v444l-166 -444h-56l-174 444v-444h-98v538h150zM694 1458v-80h-172v-458h-108v458h-172v80h452z" />
    <glyph glyph-name="acute" unicode="&#xb4;" 
d="M369 1350l204 350h201l-285 -350h-120z" />
    <glyph glyph-name="dieresis" unicode="&#xa8;" 
d="M590 1513q0 45 34.5 79t80.5 34q45 0 77.5 -33t32.5 -80q0 -49 -31 -80.5t-79 -31.5q-49 0 -82 32t-33 80zM207 1513q0 46 33.5 79.5t78.5 33.5q47 0 80 -33t33 -80q0 -49 -31.5 -80.5t-81.5 -31.5q-49 0 -80.5 31.5t-31.5 80.5z" />
    <glyph glyph-name="notequal" unicode="&#x2260;" horiz-adv-x="1706" 
d="M1313 1112l-187 -235h326v-136h-416l-205 -262h621v-135h-709l-249 -317l-105 84l184 233h-319v135h408l204 262h-612v136h702l252 317z" />
    <glyph glyph-name="AE" unicode="&#xc6;" horiz-adv-x="2079" 
d="M477 563h477v811h-94zM954 0v373h-567l-180 -373h-242l815 1587h1100v-213h-698v-440h639v-209h-639v-516h698v-209h-926z" />
    <glyph glyph-name="Oslash" unicode="&#xd8;" horiz-adv-x="1554" 
d="M1151 1143l-664 -836q59 -66 130.5 -98.5t158.5 -32.5q199 0 317.5 167t118.5 450q0 92 -15.5 180.5t-45.5 169.5zM408 440l661 838q-60 68 -133 101.5t-160 33.5q-199 0 -317.5 -167.5t-118.5 -450.5q0 -117 16.5 -202.5t51.5 -152.5zM248 256q-73 113 -108.5 246
t-35.5 293q0 181 48.5 333t144.5 273q85 108 207.5 164.5t271.5 56.5q128 0 232 -38.5t190 -117.5l123 156h225l-233 -299q69 -112 103 -243t34 -287q0 -185 -47.5 -335.5t-142.5 -269.5q-87 -108 -210 -164.5t-272 -56.5q-123 0 -226.5 37.5t-189.5 112.5l-131 -166h-223z
" />
    <glyph glyph-name="infinity" unicode="&#x221e;" horiz-adv-x="1706" 
d="M915 559q50 -89 116.5 -133.5t150.5 -44.5q101 0 165 67.5t64 172.5q0 101 -59 168t-148 67q-81 0 -146.5 -66.5t-142.5 -230.5zM793 666q-49 88 -115.5 132t-151.5 44q-101 0 -165 -66.5t-64 -171.5q0 -101 59 -168t148 -67q81 0 146.5 66t142.5 231zM842 737
q68 138 147 203.5t176 65.5q133 0 227.5 -113t94.5 -279q0 -174 -83.5 -281.5t-217.5 -107.5q-95 0 -168.5 58.5t-153.5 199.5q-71 -136 -148.5 -199t-172.5 -63q-135 0 -228.5 112t-93.5 277q0 175 83.5 283t217.5 108q95 0 170 -61.5t150 -202.5z" />
    <glyph glyph-name="plusminus" unicode="&#xb1;" horiz-adv-x="1706" 
d="M1452 170v-141h-1198v141h1198zM924 1192v-340h528v-139h-528v-340h-142v340h-528v139h528v340h142z" />
    <glyph glyph-name="lessequal" unicode="&#x2264;" horiz-adv-x="1706" 
d="M1446 162v-139h-1184v139h1184zM1444 1059l-936 -309l936 -306v-149l-1182 395v121l1182 395v-147z" />
    <glyph glyph-name="greaterequal" unicode="&#x2265;" horiz-adv-x="1706" 
d="M1446 162v-139h-1184v139h1184zM1446 811v-121l-1184 -395v149l938 306l-938 309v147z" />
    <glyph glyph-name="yen" unicode="&#xa5;" horiz-adv-x="1470" 
d="M850 653v-653h-227v653h-533v133h459l-139 224h-322l4 133h236l-271 444h252l430 -729l441 729h235l-278 -444h245v-133h-325l-135 -224h460v-133h-532z" />
    <glyph glyph-name="mu" unicode="&#xb5;" horiz-adv-x="1151" 
d="M385 1071l-129 -600q-7 -32 -10.5 -64.5t-3.5 -68.5q0 -99 52 -153t148 -54q132 0 208.5 92.5t123.5 311.5l115 536h178l-156 -732q-1 -6 -4 -20q-18 -87 -18 -112q0 -37 16.5 -52.5t55.5 -15.5q12 0 18.5 0.5t13.5 1.5l-31 -143q-24 -5 -50 -7.5t-58 -2.5q-63 0 -97 29
t-52 100q-45 -66 -112.5 -98.5t-158.5 -32.5q-82 0 -143 27.5t-113 88.5l-110 -530h-181l318 1499h180z" />
    <glyph glyph-name="partialdiff" unicode="&#x2202;" horiz-adv-x="1059" 
d="M756 621q15 87 22.5 168.5t7.5 156.5q0 129 -36.5 194.5t-108.5 65.5q-55 0 -127 -58t-108 -58t-60 22t-24 53q0 62 72 111t173 49q180 0 287 -155t107 -418q0 -335 -144.5 -556t-357.5 -221q-152 0 -253.5 108t-101.5 271q0 198 110.5 326.5t272.5 128.5
q101 0 166 -45.5t103 -142.5zM707 494q0 116 -43.5 178.5t-122.5 62.5q-109 0 -179.5 -129t-70.5 -336q0 -116 43 -177.5t123 -61.5q109 0 179.5 130t70.5 333z" />
    <glyph glyph-name="summation" unicode="&#x2211;" horiz-adv-x="1380" 
d="M55 1473h1258v-193h-959l672 -717l-694 -764h1007v-192h-1314v149l725 801l-695 739v177z" />
    <glyph glyph-name="product" unicode="&#x220f;" horiz-adv-x="1550" 
d="M156 1473h1237v-1866h-240v1661h-758v-1661h-239v1866z" />
    <glyph glyph-name="pi" unicode="&#x3c0;" horiz-adv-x="1206" 
d="M1159 913h-182l-105 -487q-15 -74 -22.5 -120t-7.5 -68q0 -58 23.5 -82.5t78.5 -24.5q17 0 40 2.5t60 7.5l-30 -141q-30 -8 -57.5 -12t-53.5 -4q-118 0 -178.5 51t-60.5 151q0 46 10.5 118t44.5 233l80 376h-326l-194 -913h-181l195 913h-41q-54 0 -84 -32t-39 -101h-160
q28 166 99.5 228.5t236.5 62.5h889z" />
    <glyph glyph-name="integral" unicode="&#x222b;" horiz-adv-x="1067" 
d="M311 -262q106 0 120 688q2 108 3 165q12 515 107 737t297 222q80 0 130 -42t50 -107q0 -54 -32 -85.5t-87 -31.5q-42 0 -70 19t-40 54q-6 15 -10.5 51t-20.5 36q-107 0 -121 -619q-4 -193 -8 -303q-17 -479 -111.5 -686t-290.5 -207q-79 0 -129.5 41.5t-50.5 106.5
q0 56 34 87.5t95 31.5q33 0 57 -14.5t39 -42.5q10 -18 15 -59.5t24 -41.5z" />
    <glyph glyph-name="ordfeminine" unicode="&#xaa;" horiz-adv-x="905" 
d="M418 858q89 0 142.5 79.5t53.5 213.5q0 133 -52.5 212t-139.5 79q-90 0 -143.5 -78t-53.5 -213q0 -134 53 -213.5t140 -79.5zM625 746q1 44 5.5 91t12.5 95q-39 -101 -107 -155t-155 -54q-148 0 -238 119t-90 317q0 197 91 316.5t237 119.5q84 0 148.5 -43.5
t101.5 -124.5q-9 37 -14 77t-6 85h167v-844z" />
    <glyph glyph-name="ordmasculine" unicode="&#xba;" horiz-adv-x="856" 
d="M428 862q92 0 146.5 83t54.5 224t-55 223.5t-146 82.5t-145 -82.5t-54 -223.5q0 -142 54 -224.5t145 -82.5zM428 723q-172 0 -273.5 120t-101.5 324t101.5 324.5t273.5 120.5q171 0 273 -120.5t102 -324.5q0 -203 -102 -323.5t-273 -120.5z" />
    <glyph glyph-name="Omega" unicode="&#x3a9;" horiz-adv-x="1565" 
d="M1487 178v-178h-600v178q177 97 276 263t99 368q0 240 -132 385t-348 145t-348.5 -145.5t-132.5 -384.5q0 -202 99.5 -368t277.5 -263v-178h-600v178h319q-158 139 -230.5 288t-72.5 333q0 318 191.5 515t496.5 197q303 0 495.5 -196.5t192.5 -505.5q0 -194 -71 -342
t-232 -289h320z" />
    <glyph glyph-name="ae" unicode="&#xe6;" horiz-adv-x="1638" 
d="M492 139q101 0 163 63.5t62 166.5q0 104 -62 166.5t-163 62.5q-103 0 -165.5 -63t-62.5 -166t63 -166.5t165 -63.5zM913 715h461q-12 163 -72 252.5t-157 89.5q-99 0 -160 -90t-72 -252zM172 1165q70 37 147 54.5t166 17.5q113 0 198 -43t140 -127q60 86 135.5 128
t169.5 42q211 0 327 -172t116 -485v-17h-658v-20q0 -175 68.5 -282t175.5 -107q59 0 111.5 39t115.5 133l156 -109q-71 -129 -164 -190.5t-217 -61.5q-120 0 -212 52.5t-146 150.5q-67 -102 -156.5 -152.5t-204.5 -50.5q-176 0 -283.5 111.5t-107.5 296.5q0 179 109 293
t278 114q80 0 145.5 -30t126.5 -94q2 14 2.5 29t0.5 44q0 172 -61 249t-195 77q-65 0 -135.5 -20t-147.5 -60v190z" />
    <glyph glyph-name="oslash" unicode="&#xf8;" horiz-adv-x="1141" 
d="M403 242q37 -39 78 -57.5t88 -18.5q122 0 196.5 119.5t74.5 318.5q0 64 -8.5 118.5t-24.5 100.5zM336 367l405 587q-35 45 -76 66.5t-90 21.5q-124 0 -199 -118.5t-75 -319.5q0 -57 9 -116.5t26 -120.5zM961 1024q56 -86 83 -189.5t27 -232.5q0 -291 -135.5 -463
t-364.5 -172q-78 0 -146.5 22t-131.5 66l-105 -149h-186l184 266q-58 86 -86 192.5t-28 237.5q0 293 135 464t364 171q84 0 155 -23.5t132 -70.5l94 137h187z" />
    <glyph glyph-name="questiondown" unicode="&#xbf;" horiz-adv-x="1233" 
d="M770 1079v-362q-23 4 -47 6t-49 2q-146 0 -230 -76t-84 -207q0 -126 71 -201t190 -75q112 0 180 60.5t78 168.5h231q-18 -192 -148.5 -301.5t-340.5 -109.5q-222 0 -354 126t-132 336q0 195 107 310.5t297 126.5v196h231zM655 1620q70 0 118 -48t48 -118
q0 -69 -48.5 -117.5t-117.5 -48.5t-117.5 48.5t-48.5 117.5q0 70 48 118t118 48z" />
    <glyph glyph-name="exclamdown" unicode="&#xa1;" horiz-adv-x="602" 
d="M412 1044v-1060h-224v1060h224zM301 1587q70 0 118 -48t48 -118q0 -69 -48.5 -117.5t-117.5 -48.5t-118.5 49t-49.5 117q0 70 49 118t119 48z" />
    <glyph glyph-name="logicalnot" unicode="&#xac;" horiz-adv-x="1706" 
d="M1452 860v-502h-137v363h-1061v139h1198z" />
    <glyph glyph-name="radical" unicode="&#x221a;" horiz-adv-x="1305" 
d="M1305 1661v-96h-115l-594 -1606h-66l-319 883l-125 -45l-25 80l283 98l256 -709l516 1395h189z" />
    <glyph glyph-name="florin" unicode="&#x192;" horiz-adv-x="1110" 
d="M1063 1393q-40 20 -72 29.5t-59 9.5q-68 0 -103.5 -48t-60.5 -192l-23 -139h246v-191h-278l-156 -903q-30 -173 -110 -249.5t-230 -76.5q-48 0 -90.5 8t-83.5 25v205q37 -24 69.5 -35.5t63.5 -11.5q69 0 105.5 42.5t54.5 147.5l145 848h-239v191h270l51 288
q25 142 107.5 213.5t220.5 71.5q46 0 90.5 -8t87.5 -25z" />
    <glyph glyph-name="approxequal" unicode="&#x2248;" horiz-adv-x="1706" 
d="M1530 430q-105 -73 -199.5 -107t-189.5 -34t-285 67.5t-293 67.5q-82 0 -171.5 -36t-213.5 -122v156q108 73 204 109t183 36q115 0 305 -68.5t273 -68.5q88 0 177 35.5t210 120.5v-156zM1530 799q-105 -73 -199.5 -107.5t-189.5 -34.5t-285 68t-293 68q-83 0 -171.5 -36
t-213.5 -122v156q106 72 202 107.5t185 35.5q116 0 305.5 -67.5t272.5 -67.5q87 0 175 34.5t212 120.5v-155z" />
    <glyph glyph-name="Delta" unicode="&#x2206;" horiz-adv-x="1370" 
d="M1102 178l-418 1084l-418 -1084h836zM797 1473l579 -1473h-1382l579 1473h224z" />
    <glyph glyph-name="guillemotleft" unicode="&#xab;" horiz-adv-x="1118" 
d="M1073 123h-223l-315 479l315 479h223l-317 -479zM631 123h-221l-318 479l318 479h221l-318 -479z" />
    <glyph glyph-name="guillemotright" unicode="&#xbb;" horiz-adv-x="1118" 
d="M45 1079h223l316 -479l-316 -479h-223l317 479zM487 1079h222l317 -479l-317 -479h-222l318 479z" />
    <glyph glyph-name="ellipsis" unicode="&#x2026;" horiz-adv-x="2048" 
d="M339 -16q-70 0 -117.5 48t-47.5 118q0 69 48 117t117 48q70 0 118 -48t48 -117q0 -70 -48 -118t-118 -48zM1021 -16q-70 0 -117.5 48t-47.5 118q0 69 48 117t117 48q70 0 118 -48t48 -117q0 -70 -48 -118t-118 -48zM1706 -16q-70 0 -117.5 48t-47.5 118q0 69 48 117
t117 48q70 0 118 -48t48 -117q0 -70 -48 -118t-118 -48z" />
    <glyph glyph-name="nonbreakingspace" unicode="&#xa0;" horiz-adv-x="1110" 
 />
    <glyph glyph-name="Agrave" unicode="&#xc0;" horiz-adv-x="1518" 
d="M481 586h543l-272 784zM1225 0l-142 410h-661l-135 -410h-234l582 1587h244l583 -1587h-237zM903 1700h-120l-285 350h201z" />
    <glyph glyph-name="Atilde" unicode="&#xc3;" horiz-adv-x="1518" 
d="M481 586h543l-272 784zM1225 0l-142 410h-661l-135 -410h-234l582 1587h244l583 -1587h-237zM1053 1976q-20 -100 -70.5 -153.5t-126.5 -53.5q-13 0 -29.5 2.5t-36.5 8.5l-96 28q-13 4 -25.5 6t-23.5 2q-30 0 -53 -18t-37 -53h-88q18 100 68 153.5t125 53.5q17 0 32 -2.5
t27 -6.5l98 -28q23 -6 34 -8.5t20 -2.5q33 0 56.5 18t37.5 54h88z" />
    <glyph glyph-name="Otilde" unicode="&#xd5;" horiz-adv-x="1554" 
d="M340 795q0 -286 118 -452.5t318 -166.5q199 0 317.5 167t118.5 450q0 284 -118.5 452t-317.5 168t-317.5 -167t-118.5 -451zM776 1622q151 0 273 -56.5t211 -166.5q95 -120 142.5 -271.5t47.5 -334.5q0 -185 -47 -334.5t-143 -270.5q-87 -108 -210 -164.5t-272 -56.5
t-271.5 56.5t-209.5 164.5q-97 122 -145 273t-48 334q0 182 48 334.5t143 271.5q88 109 209.5 165t271.5 56zM1071 1976q-20 -100 -70.5 -153.5t-126.5 -53.5q-13 0 -29.5 2.5t-36.5 8.5l-96 28q-13 4 -25.5 6t-23.5 2q-30 0 -53 -18t-37 -53h-88q18 100 68 153.5t125 53.5
q17 0 32 -2.5t27 -6.5l98 -28q23 -6 34 -8.5t20 -2.5q33 0 56.5 18t37.5 54h88z" />
    <glyph glyph-name="OE" unicode="&#x152;" horiz-adv-x="2048" 
d="M342 795q0 -288 94.5 -453.5t255.5 -165.5q160 0 255 165.5t95 451.5t-95 453t-255 167t-255 -166.5t-95 -451.5zM1063 1587h905v-207h-702v-446h645v-209h-645v-516h702v-209h-905v233q-64 -134 -164.5 -200t-241.5 -66q-249 0 -401 225t-152 603q0 376 151.5 601.5
t399.5 225.5q132 0 235.5 -65.5t172.5 -192.5v223z" />
    <glyph glyph-name="oe" unicode="&#x153;" horiz-adv-x="1788" 
d="M303 604q0 -202 67 -320t181 -118q112 0 180 118.5t68 319.5t-68 319.5t-180 118.5q-113 0 -180.5 -118t-67.5 -320zM1014 715h497q-12 164 -76.5 253t-170.5 89t-171.5 -89.5t-78.5 -252.5zM1669 217q-75 -128 -171 -189t-222 -61t-223.5 54.5t-153.5 156.5
q-62 -105 -153.5 -158t-210.5 -53q-213 0 -338 171t-125 464t125 464t338 171q117 0 206 -54t158 -167q73 117 158.5 169t202.5 52q214 0 336 -173.5t122 -479.5v-21h-714v-22q0 -172 75 -279.5t191 -107.5q76 0 136.5 42t117.5 136z" />
    <glyph glyph-name="endash" unicode="&#x2013;" 
d="M1024 698v-170h-1024v170h1024z" />
    <glyph glyph-name="emdash" unicode="&#x2014;" horiz-adv-x="2048" 
d="M2048 528h-2048v170h2048v-170z" />
    <glyph glyph-name="quotedblleft" unicode="&#x201c;" horiz-adv-x="1100" 
d="M1049 1587l-226 -645h-260l295 645h191zM557 1587l-223 -645h-260l293 645h190z" />
    <glyph glyph-name="quotedblright" unicode="&#x201d;" horiz-adv-x="1100" 
d="M98 942l226 645h260l-295 -645h-191zM590 942l223 645h260l-293 -645h-190z" />
    <glyph glyph-name="quoteleft" unicode="&#x2018;" horiz-adv-x="602" 
d="M557 1587l-223 -645h-260l293 645h190z" />
    <glyph glyph-name="quoteright" unicode="&#x2019;" horiz-adv-x="602" 
d="M100 942l224 645h262l-295 -645h-191z" />
    <glyph glyph-name="divide" unicode="&#xf7;" horiz-adv-x="1706" 
d="M854 367q51 0 88 -37t37 -88q0 -52 -36.5 -88.5t-88.5 -36.5q-53 0 -89 36t-36 89q0 51 37 88t88 37zM1452 680v-139h-1198v139h1198zM854 1106q51 0 88 -37.5t37 -89.5q0 -51 -36.5 -88t-88.5 -37t-88.5 36.5t-36.5 88.5t37 89.5t88 37.5z" />
    <glyph glyph-name="lozenge" unicode="&#x25ca;" horiz-adv-x="1012" 
d="M506 1409l-385 -817l385 -825l385 825zM506 1653l500 -1061l-500 -1069l-500 1069z" />
    <glyph glyph-name="ydieresis" unicode="&#xff;" horiz-adv-x="1053" 
d="M1042 1204l-596 -1579h-243l200 504l-378 1075h251l254 -801l277 801h235zM604 1513q0 45 34.5 79t80.5 34q45 0 77.5 -33t32.5 -80q0 -49 -31 -80.5t-79 -31.5q-49 0 -82 32t-33 80zM221 1513q0 46 33.5 79.5t78.5 33.5q47 0 80 -33t33 -80q0 -49 -31.5 -80.5
t-81.5 -31.5q-49 0 -80.5 31.5t-31.5 80.5z" />
    <glyph glyph-name="Ydieresis" unicode="&#x178;" horiz-adv-x="1479" 
d="M852 653v-653h-227v653l-625 934h274l469 -729l480 729h254zM817 1863q0 45 34.5 79t80.5 34q45 0 77.5 -33t32.5 -80q0 -49 -31 -80.5t-79 -31.5q-49 0 -82 32t-33 80zM434 1863q0 46 33.5 79.5t78.5 33.5q47 0 80 -33t33 -80q0 -49 -31.5 -80.5t-81.5 -31.5
q-49 0 -80.5 31.5t-31.5 80.5z" />
    <glyph glyph-name="fraction" unicode="&#x2215;" horiz-adv-x="342" 
d="M541 1593h141l-881 -1626h-143z" />
    <glyph glyph-name="currency" unicode="&#xa4;" horiz-adv-x="1241" 
d="M926 887q0 125 -89 214t-214 89q-126 0 -215 -89t-89 -214q0 -126 89 -215.5t215 -89.5q125 0 214 89.5t89 215.5zM367 1219q57 43 120 64.5t134 21.5t134.5 -21.5t121.5 -64.5l204 204l82 -80l-205 -206q41 -55 61.5 -118t20.5 -134q0 -73 -20 -135.5t-62 -116.5
l205 -205l-82 -82l-204 205q-59 -44 -122 -65t-132 -21q-72 0 -135.5 21.5t-120.5 64.5l-205 -205l-82 82l207 205q-41 51 -62.5 116t-21.5 136q0 70 21 133t63 119l-207 206l82 80z" />
    <glyph glyph-name="guilsinglleft" unicode="&#x2039;" horiz-adv-x="621" 
d="M606 123h-221l-317 479l317 479h221l-315 -479z" />
    <glyph glyph-name="guilsinglright" unicode="&#x203a;" horiz-adv-x="621" 
d="M14 1079h222l317 -479l-317 -479h-222l318 479z" />
    <glyph glyph-name="fi" unicode="&#xf001;" horiz-adv-x="1231" 
d="M731 1583v-192q-31 19 -63 29t-64 10q-70 0 -108.5 -38.5t-38.5 -109.5v-192h250v-170h-250v-920h-228v920h-204v170h204v170q0 180 79 266t245 86q45 0 89 -7t89 -22zM1122 1466q0 -66 -46.5 -106.5t-123.5 -40.5t-124.5 41t-47.5 106q0 66 47.5 106t124.5 40t123.5 -40
t46.5 -106zM842 0v1090h223v-1090h-223z" />
    <glyph glyph-name="fl" unicode="&#xf002;" horiz-adv-x="1231" 
d="M731 1583v-192q-31 19 -63 29t-64 10q-70 0 -108.5 -38.5t-38.5 -109.5v-192h250v-170h-250v-920h-228v920h-204v170h204v170q0 180 79 266t245 86q45 0 89 -7t89 -22zM842 0v1612h223v-1612h-223z" />
    <glyph glyph-name="daggerdbl" unicode="&#x2021;" horiz-adv-x="920" 
d="M561 717q-18 -64 -35 -156.5t-32 -214.5l366 70v-215l-368 71l67 -458h-203l70 458l-371 -71v215l369 -70q-16 122 -33 213.5t-37 157.5q19 64 36.5 156.5t33.5 216.5l-369 -72v215l371 -70l-70 459h203l-67 -459l368 70v-215l-366 72q15 -124 32 -217.5t35 -155.5z" />
    <glyph glyph-name="periodcentered" unicode="&#xb7;" horiz-adv-x="555" 
d="M276 618q-67 0 -113 47t-46 115t46 114t113 46q68 0 115 -46t47 -114q0 -67 -47 -114.5t-115 -47.5z" />
    <glyph glyph-name="quotesinglbase" unicode="&#x201a;" horiz-adv-x="555" 
d="M-23 -152l224 646h260l-293 -646h-191z" />
    <glyph glyph-name="quotedblbase" unicode="&#x201e;" horiz-adv-x="1100" 
d="M500 -152l223 646h260l-293 -646h-190zM8 -152l225 646h261l-295 -646h-191z" />
    <glyph glyph-name="perthousand" unicode="&#x2030;" horiz-adv-x="3058" 
d="M2296 379q0 -109 77.5 -186.5t186.5 -77.5t185.5 76.5t76.5 187.5q0 110 -75.5 186t-186.5 76q-110 0 -187 -76.5t-77 -185.5zM2146 379q0 172 121 292t293 120t292 -120t120 -292t-120 -292t-292 -120q-84 0 -158.5 30.5t-132.5 88.5q-60 60 -91.5 135t-31.5 158z
M1165 379q0 172 121 292t293 120t292 -120t120 -292t-120 -292t-292 -120q-84 0 -158.5 30.5t-132.5 88.5q-60 60 -91.5 135t-31.5 158zM1315 379q0 -109 77.5 -186.5t186.5 -77.5t185.5 76.5t76.5 187.5q0 110 -75.5 186t-186.5 76q-110 0 -187 -76.5t-77 -185.5zM84 1180
q0 172 121 292.5t293 120.5q171 0 291 -120.5t120 -292.5t-119.5 -292t-291.5 -120q-83 0 -158 31t-133 90q-60 60 -91.5 134t-31.5 157zM233 1182q0 -109 78 -186.5t187 -77.5t186.5 77t77.5 187q0 109 -77 185.5t-187 76.5t-187.5 -77t-77.5 -185zM494 -33l940 1626h143
l-936 -1626h-147z" />
    <glyph glyph-name="Acircumflex" unicode="&#xc2;" horiz-adv-x="1518" 
d="M481 586h543l-272 784zM1225 0l-142 410h-661l-135 -410h-234l582 1587h244l583 -1587h-237zM465 1700l197 350h196l197 -350h-123l-172 229l-174 -229h-121z" />
    <glyph glyph-name="Ecircumflex" unicode="&#xca;" horiz-adv-x="1628" 
d="M246 0v1587h1175v-207h-948v-450h893v-201h-893v-520h948v-209h-1175zM547 1700l197 350h196l197 -350h-123l-172 229l-174 -229h-121z" />
    <glyph glyph-name="Aacute" unicode="&#xc1;" horiz-adv-x="1518" 
d="M481 586h543l-272 784zM1225 0l-142 410h-661l-135 -410h-234l582 1587h244l583 -1587h-237zM617 1700l204 350h201l-285 -350h-120z" />
    <glyph glyph-name="Edieresis" unicode="&#xcb;" horiz-adv-x="1628" 
d="M246 0v1587h1175v-207h-948v-450h893v-201h-893v-520h948v-209h-1175zM920 1863q0 45 34.5 79t80.5 34q45 0 77.5 -33t32.5 -80q0 -49 -31 -80.5t-79 -31.5q-49 0 -82 32t-33 80zM537 1863q0 46 33.5 79.5t78.5 33.5q47 0 80 -33t33 -80q0 -49 -31.5 -80.5t-81.5 -31.5
q-49 0 -80.5 31.5t-31.5 80.5z" />
    <glyph glyph-name="Egrave" unicode="&#xc8;" horiz-adv-x="1628" 
d="M246 0v1587h1175v-207h-948v-450h893v-201h-893v-520h948v-209h-1175zM985 1700h-120l-285 350h201z" />
    <glyph glyph-name="Iacute" unicode="&#xcd;" horiz-adv-x="721" 
d="M473 0h-227v1587h227v-1587zM217 1700l204 350h201l-285 -350h-120z" />
    <glyph glyph-name="Icircumflex" unicode="&#xce;" horiz-adv-x="721" 
d="M473 0h-227v1587h227v-1587zM65 1700l197 350h196l197 -350h-123l-172 229l-174 -229h-121z" />
    <glyph glyph-name="Idieresis" unicode="&#xcf;" horiz-adv-x="721" 
d="M473 0h-227v1587h227v-1587zM438 1863q0 45 34.5 79t80.5 34q45 0 77.5 -33t32.5 -80q0 -49 -31 -80.5t-79 -31.5q-49 0 -82 32t-33 80zM55 1863q0 46 33.5 79.5t78.5 33.5q47 0 80 -33t33 -80q0 -49 -31.5 -80.5t-81.5 -31.5q-49 0 -80.5 31.5t-31.5 80.5z" />
    <glyph glyph-name="Igrave" unicode="&#xcc;" horiz-adv-x="721" 
d="M473 0h-227v1587h227v-1587zM503 1700h-120l-285 350h201z" />
    <glyph glyph-name="Oacute" unicode="&#xd3;" horiz-adv-x="1554" 
d="M340 795q0 -286 118 -452.5t318 -166.5q199 0 317.5 167t118.5 450q0 284 -118.5 452t-317.5 168t-317.5 -167t-118.5 -451zM776 1622q151 0 273 -56.5t211 -166.5q95 -120 142.5 -271.5t47.5 -334.5q0 -185 -47 -334.5t-143 -270.5q-87 -108 -210 -164.5t-272 -56.5
t-271.5 56.5t-209.5 164.5q-97 122 -145 273t-48 334q0 182 48 334.5t143 271.5q88 109 209.5 165t271.5 56zM635 1700l204 350h201l-285 -350h-120z" />
    <glyph glyph-name="Ocircumflex" unicode="&#xd4;" horiz-adv-x="1554" 
d="M340 795q0 -286 118 -452.5t318 -166.5q199 0 317.5 167t118.5 450q0 284 -118.5 452t-317.5 168t-317.5 -167t-118.5 -451zM776 1622q151 0 273 -56.5t211 -166.5q95 -120 142.5 -271.5t47.5 -334.5q0 -185 -47 -334.5t-143 -270.5q-87 -108 -210 -164.5t-272 -56.5
t-271.5 56.5t-209.5 164.5q-97 122 -145 273t-48 334q0 182 48 334.5t143 271.5q88 109 209.5 165t271.5 56zM483 1700l197 350h196l197 -350h-123l-172 229l-174 -229h-121z" />
    <glyph glyph-name="apple" unicode="&#xf000;" horiz-adv-x="1618" 
d="M836 1216q-1 6 -1.5 14t-0.5 23q0 124 95 229.5t236 131.5q1 -10 1.5 -23t0.5 -39q0 -131 -103.5 -234.5t-203.5 -103.5h-8q-3 0 -7.5 1t-8.5 1zM1505 403q-114 -247 -205 -342.5t-204 -95.5q-50 0 -131.5 33t-122.5 33q-45 0 -131 -33t-127 -33q-64 0 -128.5 44
t-129.5 132q-102 140 -157.5 295.5t-55.5 300.5q0 219 125 356.5t323 137.5q68 0 155 -34t124 -34q34 0 121.5 35t152.5 35q110 0 198 -40t161 -124q-102 -65 -151.5 -145.5t-49.5 -182.5q0 -113 60 -200t173 -138z" />
    <glyph glyph-name="Ograve" unicode="&#xd2;" horiz-adv-x="1554" 
d="M340 795q0 -286 118 -452.5t318 -166.5q199 0 317.5 167t118.5 450q0 284 -118.5 452t-317.5 168t-317.5 -167t-118.5 -451zM776 1622q151 0 273 -56.5t211 -166.5q95 -120 142.5 -271.5t47.5 -334.5q0 -185 -47 -334.5t-143 -270.5q-87 -108 -210 -164.5t-272 -56.5
t-271.5 56.5t-209.5 164.5q-97 122 -145 273t-48 334q0 182 48 334.5t143 271.5q88 109 209.5 165t271.5 56zM921 1700h-120l-285 350h201z" />
    <glyph glyph-name="Uacute" unicode="&#xda;" horiz-adv-x="1622" 
d="M242 1587h227v-887q0 -262 85.5 -393t256.5 -131q172 0 257 130t85 394v887h227v-889q0 -358 -145 -544.5t-424 -186.5q-280 0 -424.5 186t-144.5 545v889zM668 1700l204 350h201l-285 -350h-120z" />
    <glyph glyph-name="Ucircumflex" unicode="&#xdb;" horiz-adv-x="1622" 
d="M242 1587h227v-887q0 -262 85.5 -393t256.5 -131q172 0 257 130t85 394v887h227v-889q0 -358 -145 -544.5t-424 -186.5q-280 0 -424.5 186t-144.5 545v889zM516 1700l197 350h196l197 -350h-123l-172 229l-174 -229h-121z" />
    <glyph glyph-name="Ugrave" unicode="&#xd9;" horiz-adv-x="1622" 
d="M242 1587h227v-887q0 -262 85.5 -393t256.5 -131q172 0 257 130t85 394v887h227v-889q0 -358 -145 -544.5t-424 -186.5q-280 0 -424.5 186t-144.5 545v889zM954 1700h-120l-285 350h201z" />
    <glyph glyph-name="dotlessi" unicode="&#x131;" horiz-adv-x="555" 
d="M166 0v1165h223v-1165h-223z" />
    <glyph glyph-name="circumflex" unicode="&#x2c6;" 
d="M217 1350l197 350h196l197 -350h-123l-172 229l-174 -229h-121z" />
    <glyph glyph-name="tilde" unicode="&#x2dc;" 
d="M805 1626q-20 -100 -70.5 -153.5t-126.5 -53.5q-13 0 -29.5 2.5t-36.5 8.5l-96 28q-13 4 -25.5 6t-23.5 2q-30 0 -53 -18t-37 -53h-88q18 100 68 153.5t125 53.5q17 0 32 -2.5t27 -6.5l98 -28q23 -6 34 -8.5t20 -2.5q33 0 56.5 18t37.5 54h88z" />
    <glyph glyph-name="macron" unicode="&#xaf;" 
d="M242 1454v139h540v-139h-540z" />
    <glyph glyph-name="breve" unicode="&#x2d8;" 
d="M221 1663h108q5 -71 49.5 -105t133.5 -34t133.5 34t49.5 105h108q-11 -144 -81 -211.5t-210 -67.5t-210 67.5t-81 211.5z" />
    <glyph glyph-name="dotaccent" unicode="&#x2d9;" 
d="M401 1513q0 47 32.5 79t78.5 32t79.5 -32.5t33.5 -78.5q0 -47 -33 -79.5t-80 -32.5q-46 0 -78.5 32.5t-32.5 79.5z" />
    <glyph glyph-name="ring" unicode="&#x2da;" 
d="M377 1581q0 -57 39 -96t96 -39q56 0 95.5 39.5t39.5 95.5q0 55 -40 95t-95 40q-57 0 -96 -39t-39 -96zM260 1583q0 106 73 179t179 73t180 -73t74 -179t-74 -180t-180 -74t-179 74t-73 180z" />
    <glyph glyph-name="cedilla" unicode="&#xb8;" 
d="M303 -387v92q75 -18 138.5 -27.5t109.5 -9.5q48 0 75 20t27 56q0 40 -31 59t-96 19q-20 0 -30.5 -0.5t-19.5 -1.5l-1 180h74v-92h29q101 0 155.5 -41t54.5 -117q0 -87 -59.5 -131.5t-177.5 -44.5q-50 0 -113 10t-135 29z" />
    <glyph glyph-name="hungarumlaut" unicode="&#x2dd;" 
d="M569 1348l166 350h176l-245 -350h-97zM311 1348l138 350h178l-219 -350h-97z" />
    <glyph glyph-name="ogonek" unicode="&#x2db;" 
d="M633 0q-71 -61 -101 -108t-30 -95q0 -40 19.5 -55.5t72.5 -15.5h80v-132h-82q-108 0 -161.5 38.5t-53.5 115.5q0 59 41 117.5t137 134.5h78z" />
    <glyph glyph-name="caron" unicode="&#x2c7;" 
d="M805 1700l-197 -350h-194l-197 350h121l174 -230l172 230h121z" />
    <glyph glyph-name="Lslash" unicode="&#x141;" horiz-adv-x="1403" 
d="M246 0v612l-246 -168v168l246 174v801h227v-676l467 324v-174l-467 -326v-526h907v-209h-1134z" />
    <glyph glyph-name="lslash" unicode="&#x142;" horiz-adv-x="563" 
d="M170 0v662l-170 -119v139l170 119v811h223v-690l170 120v-139l-170 -117v-786h-223z" />
    <glyph glyph-name="Scaron" unicode="&#x160;" horiz-adv-x="1251" 
d="M104 373l195 67q37 -130 120 -198t204 -68q118 0 188 70.5t70 189.5q0 96 -57 157t-253 142q-227 93 -320 199t-93 264q0 186 123.5 306t318.5 120q132 0 240.5 -60t197.5 -182l-151 -149q-69 95 -140 141.5t-147 46.5q-97 0 -157 -55.5t-60 -144.5q0 -71 39 -123
t125 -95q77 -38 182 -81.5t127 -57.5q142 -92 196 -185.5t54 -238.5q0 -208 -133 -339.5t-344 -131.5q-204 0 -343.5 108t-181.5 298zM920 2050l-197 -350h-194l-197 350h121l174 -230l172 230h121z" />
    <glyph glyph-name="scaron" unicode="&#x161;" horiz-adv-x="1038" 
d="M754 897q-63 81 -128.5 119.5t-142.5 38.5t-127.5 -40.5t-50.5 -101.5q0 -50 34.5 -84.5t113.5 -60.5q12 -4 37 -12q198 -65 251 -94q119 -66 166 -137.5t47 -180.5q0 -170 -115.5 -273.5t-308.5 -103.5q-143 0 -260 57t-204 169l155 137q61 -85 141 -129.5t173 -44.5
q96 0 156.5 46t60.5 120q0 59 -42.5 100.5t-136.5 73.5q-38 13 -107 35q-148 48 -187 73q-94 58 -134.5 123t-40.5 156q0 154 108.5 254t276.5 100q132 0 238 -52.5t180 -154.5zM813 1700l-197 -350h-194l-197 350h121l174 -230l172 230h121z" />
    <glyph glyph-name="Zcaron" unicode="&#x17d;" horiz-adv-x="1298" 
d="M61 0l768 1380h-700v207h1067l-768 -1378h786v-209h-1153zM942 2050l-197 -350h-194l-197 350h121l174 -230l172 230h121z" />
    <glyph glyph-name="zcaron" unicode="&#x17e;" horiz-adv-x="967" 
d="M16 0l551 1014h-481v190h834l-551 -1014h526v-190h-879zM776 1700l-197 -350h-194l-197 350h121l174 -230l172 230h121z" />
    <glyph glyph-name="brokenbar" unicode="&#xa6;" 
d="M588 408v-758h-150v758h150zM588 1432v-758h-150v758h150z" />
    <glyph glyph-name="Eth" unicode="&#xd0;" horiz-adv-x="1712" 
d="M487 209h185q139 0 245 16t156 43q133 75 198.5 206t65.5 323q0 180 -67 314.5t-193 207.5q-52 30 -151.5 44.5t-259.5 14.5h-179v-477h424v-151h-424v-541zM260 0v750h-260v151h260v686h451q178 0 299 -20.5t196 -63.5q180 -103 273.5 -283t93.5 -421q0 -242 -87 -417
t-259 -282q-86 -53 -216.5 -76.5t-348.5 -23.5h-402z" />
    <glyph glyph-name="eth" unicode="&#xf0;" horiz-adv-x="1141" 
d="M645 1169q-20 31 -43.5 62t-50.5 63l-248 -65l-31 106l203 56q-21 23 -69 73q-23 25 -35 37l112 111q65 -57 107.5 -96.5t77.5 -73.5l262 71l31 -110l-213 -57q168 -185 244.5 -369.5t76.5 -407.5q0 -276 -135.5 -439t-364.5 -163q-228 0 -362.5 162.5t-134.5 439.5
q0 269 137.5 441t347.5 172q20 0 41.5 -3t46.5 -10zM305 571q0 -187 71.5 -296t192.5 -109q123 0 196 109.5t73 295.5t-73.5 297t-193.5 111q-122 0 -194 -110t-72 -298z" />
    <glyph glyph-name="Yacute" unicode="&#xdd;" horiz-adv-x="1479" 
d="M852 653v-653h-227v653l-625 934h274l469 -729l480 729h254zM596 1700l204 350h201l-285 -350h-120z" />
    <glyph glyph-name="yacute" unicode="&#xfd;" horiz-adv-x="1053" 
d="M1042 1204l-596 -1579h-243l200 504l-378 1075h251l254 -801l277 801h235zM383 1350l204 350h201l-285 -350h-120z" />
    <glyph glyph-name="Thorn" unicode="&#xde;" horiz-adv-x="1526" 
d="M473 1102v-541h203q280 0 384.5 61t104.5 209q0 153 -96.5 212t-392.5 59h-203zM473 1300h336q287 0 439.5 -117.5t152.5 -340.5q0 -236 -158 -358t-463 -122h-307v-362h-227v1587h227v-287z" />
    <glyph glyph-name="thorn" unicode="&#xfe;" horiz-adv-x="1253" 
d="M367 217q13 -53 19.5 -116t6.5 -146v-330h-221v1987h221v-408q0 -48 -6.5 -118.5t-19.5 -157.5q33 139 122 218t211 79q196 0 316.5 -170.5t120.5 -452.5t-121 -454.5t-316 -172.5q-110 0 -196.5 62.5t-136.5 179.5zM387 612q0 -191 71 -304t189 -113q120 0 191 113
t71 304q0 190 -71 303t-189 113q-119 0 -190.5 -112t-71.5 -304z" />
    <glyph glyph-name="minus" unicode="&#x2212;" horiz-adv-x="1706" 
d="M1452 682v-141h-1198v141h1198z" />
    <glyph glyph-name="multiply" unicode="&#xd7;" horiz-adv-x="1706" 
d="M860 709l469 469l98 -99l-469 -469l469 -469l-98 -96l-469 467l-469 -467l-98 96l469 469l-469 469l98 99z" />
    <glyph glyph-name="onesuperior" unicode="&#xb9;" horiz-adv-x="733" 
d="M295 623v821h-191v115h347v-936h-156z" />
    <glyph glyph-name="twosuperior" unicode="&#xb2;" horiz-adv-x="733" 
d="M6 623l69 75q431 469 431 615q0 69 -39 108t-109 39q-74 0 -113.5 -51t-39.5 -147v-15h-148v25q0 144 79.5 225.5t219.5 81.5t220.5 -74t80.5 -202q0 -105 -74 -221t-298 -337h377v-122h-656z" />
    <glyph glyph-name="threesuperior" unicode="&#xb3;" horiz-adv-x="733" 
d="M39 856h154q10 -64 53.5 -98.5t113.5 -34.5q75 0 116.5 42t41.5 118t-52 121t-142 45v110h8q86 0 133 40t47 114q0 69 -41 109t-113 40q-64 0 -103.5 -35.5t-45.5 -99.5h-149q7 117 88 184.5t212 67.5q140 0 221 -70t81 -190q0 -78 -37 -130t-111 -79q82 -31 123 -87
t41 -138q0 -126 -88 -204.5t-230 -78.5q-137 0 -223.5 68.5t-97.5 185.5z" />
    <glyph glyph-name="onequarter" unicode="&#xbc;" horiz-adv-x="1741" 
d="M1495 262l8 391l-280 -391h272zM1489 0v164h-432v43l522 686h41v-631h82v-98h-82v-164h-131zM1239 1593h141l-880 -1626h-144zM283 686v768h-183v107h330v-875h-147z" />
    <glyph glyph-name="onehalf" unicode="&#xbd;" horiz-adv-x="1741" 
d="M1047 0l74 79q403 429 403 564q0 66 -37.5 102.5t-104.5 36.5q-70 0 -107.5 -47.5t-37.5 -138.5v-12h-141v22q0 134 76 210.5t208 76.5q133 0 211 -69.5t78 -188.5q0 -97 -69.5 -204t-286.5 -316h360v-115h-626zM1239 1593h141l-880 -1626h-144zM283 686v768h-183v107
h330v-875h-147z" />
    <glyph glyph-name="threequarters" unicode="&#xbe;" horiz-adv-x="1741" 
d="M1495 262l8 391l-280 -391h272zM1489 0v164h-432v43l522 686h41v-631h82v-98h-82v-164h-131zM1239 1593h141l-880 -1626h-144zM37 903h147q10 -60 51 -91.5t109 -31.5q72 0 112 39t40 109q0 73 -49.5 114t-137.5 41v105h6q85 0 129.5 37t44.5 106q0 65 -39 102t-108 37
q-62 0 -99.5 -33.5t-41.5 -92.5l-144 -1q8 110 85 173t202 63q133 0 211 -65.5t78 -176.5q0 -72 -35.5 -121t-105.5 -75q78 -30 116.5 -82t38.5 -127q0 -118 -84 -191t-219 -73q-130 0 -213 63.5t-94 171.5z" />
    <glyph glyph-name="franc" unicode="&#x20a3;" horiz-adv-x="2200" 
d="M246 0v1587h1110v-207h-883v-471h825v-209h-825v-700h-227zM1620 0v1204h215q-1 -68 -6 -144t-14 -169q60 169 138 249.5t181 80.5q25 0 53.5 -6.5t67.5 -20.5l-51 -250q-30 15 -55 22t-50 7q-117 0 -186.5 -116t-69.5 -314v-543h-223z" />
    <glyph glyph-name="Gbreve" unicode="&#x11e;" horiz-adv-x="1602" 
d="M1503 825q0 -2 1 -6q3 -58 3 -88q0 -105 -17.5 -194t-51.5 -160q-100 -204 -255.5 -307t-363.5 -103q-155 0 -287 59t-229 171q-101 116 -151 264.5t-50 333.5q0 182 50.5 332.5t150.5 267.5q95 110 227 168.5t287 58.5q189 0 328.5 -76t245.5 -237l-174 -140
q-72 124 -169 184t-227 60q-219 0 -350 -167.5t-131 -450.5q0 -279 133 -449t348 -170q188 0 310.5 124.5t131.5 326.5h-401v198h641zM510 2013h108q5 -71 49.5 -105t133.5 -34t133.5 34t49.5 105h108q-11 -144 -81 -211.5t-210 -67.5t-210 67.5t-81 211.5z" />
    <glyph glyph-name="gbreve" unicode="&#x11f;" horiz-adv-x="1233" 
d="M590 221q119 0 190.5 108t71.5 292q0 183 -70.5 291t-187.5 108q-121 0 -191.5 -107.5t-70.5 -291.5t70 -292t188 -108zM342 -90q39 -69 90.5 -98t134.5 -29q142 0 208.5 88.5t66.5 275.5q0 27 -4 86v11q-49 -103 -127.5 -156t-180.5 -53q-188 0 -308 163t-120 427
q0 271 120.5 433.5t318.5 162.5q113 0 200.5 -70t139.5 -203q-15 69 -22 133t-7 123h217v-1020q0 -147 -26.5 -240t-86.5 -161q-65 -75 -166 -116.5t-221 -41.5q-169 0 -277.5 56.5t-154.5 168.5zM325 1663h108q5 -71 49.5 -105t133.5 -34t133.5 34t49.5 105h108
q-11 -144 -81 -211.5t-210 -67.5t-210 67.5t-81 211.5z" />
    <glyph glyph-name="Idotaccent" unicode="&#x130;" horiz-adv-x="721" 
d="M473 0h-227v1587h227v-1587zM249 1863q0 47 32.5 79t78.5 32t79.5 -32.5t33.5 -78.5q0 -47 -33 -79.5t-80 -32.5q-46 0 -78.5 32.5t-32.5 79.5z" />
    <glyph glyph-name="Scedilla" unicode="&#x15e;" horiz-adv-x="1251" 
d="M104 373l195 67q37 -130 120 -198t204 -68q118 0 188 70.5t70 189.5q0 96 -57 157t-253 142q-227 93 -320 199t-93 264q0 186 123.5 306t318.5 120q132 0 240.5 -60t197.5 -182l-151 -149q-69 95 -140 141.5t-147 46.5q-97 0 -157 -55.5t-60 -144.5q0 -71 39 -123
t125 -95q77 -38 182 -81.5t127 -57.5q142 -92 196 -185.5t54 -238.5q0 -208 -133 -339.5t-344 -131.5q-204 0 -343.5 108t-181.5 298zM418 -387v92q75 -18 138.5 -27.5t109.5 -9.5q48 0 75 20t27 56q0 40 -31 59t-96 19q-20 0 -30.5 -0.5t-19.5 -1.5l-1 180h74v-92h29
q101 0 155.5 -41t54.5 -117q0 -87 -59.5 -131.5t-177.5 -44.5q-50 0 -113 10t-135 29z" />
    <glyph glyph-name="scedilla" unicode="&#x15f;" horiz-adv-x="1038" 
d="M754 897q-63 81 -128.5 119.5t-142.5 38.5t-127.5 -40.5t-50.5 -101.5q0 -50 34.5 -84.5t113.5 -60.5q12 -4 37 -12q198 -65 251 -94q119 -66 166 -137.5t47 -180.5q0 -170 -115.5 -273.5t-308.5 -103.5q-143 0 -260 57t-204 169l155 137q61 -85 141 -129.5t173 -44.5
q96 0 156.5 46t60.5 120q0 59 -42.5 100.5t-136.5 73.5q-38 13 -107 35q-148 48 -187 73q-94 58 -134.5 123t-40.5 156q0 154 108.5 254t276.5 100q132 0 238 -52.5t180 -154.5zM311 -387v92q75 -18 138.5 -27.5t109.5 -9.5q48 0 75 20t27 56q0 40 -31 59t-96 19
q-20 0 -30.5 -0.5t-19.5 -1.5l-1 180h74v-92h29q101 0 155.5 -41t54.5 -117q0 -87 -59.5 -131.5t-177.5 -44.5q-50 0 -113 10t-135 29z" />
    <glyph glyph-name="Cacute" unicode="&#x106;" horiz-adv-x="1366" 
d="M1278 111q-91 -73 -202 -108.5t-249 -35.5q-157 0 -288 55t-226 160q-104 117 -156.5 270t-52.5 343q0 187 52.5 343t154.5 273q90 104 218 157.5t286 53.5q125 0 231 -35t197 -106v-273q-87 106 -188 155.5t-228 49.5q-219 0 -352 -168.5t-133 -449.5
q0 -288 135.5 -453.5t368.5 -165.5q129 0 237 50t195 151v-266zM660 1700l204 350h201l-285 -350h-120z" />
    <glyph glyph-name="cacute" unicode="&#x107;" horiz-adv-x="1069" 
d="M997 47q-55 -40 -139 -61t-186 -21q-278 0 -439 171t-161 466q0 291 159 464t424 173q98 0 185.5 -23t156.5 -67v-236q-66 64 -148 96.5t-175 32.5q-173 0 -272 -116.5t-99 -321.5q0 -208 103.5 -326t283.5 -118q86 0 160 32.5t147 102.5v-248zM508 1350l204 350h201
l-285 -350h-120z" />
    <glyph glyph-name="Ccaron" unicode="&#x10c;" horiz-adv-x="1366" 
d="M1278 111q-91 -73 -202 -108.5t-249 -35.5q-157 0 -288 55t-226 160q-104 117 -156.5 270t-52.5 343q0 187 52.5 343t154.5 273q90 104 218 157.5t286 53.5q125 0 231 -35t197 -106v-273q-87 106 -188 155.5t-228 49.5q-219 0 -352 -168.5t-133 -449.5
q0 -288 135.5 -453.5t368.5 -165.5q129 0 237 50t195 151v-266zM1096 2050l-197 -350h-194l-197 350h121l174 -230l172 230h121z" />
    <glyph glyph-name="ccaron" unicode="&#x10d;" horiz-adv-x="1069" 
d="M997 47q-55 -40 -139 -61t-186 -21q-278 0 -439 171t-161 466q0 291 159 464t424 173q98 0 185.5 -23t156.5 -67v-236q-66 64 -148 96.5t-175 32.5q-173 0 -272 -116.5t-99 -321.5q0 -208 103.5 -326t283.5 -118q86 0 160 32.5t147 102.5v-248zM944 1700l-197 -350h-194
l-197 350h121l174 -230l172 230h121z" />
    <glyph glyph-name="dcroat" unicode="&#x111;" horiz-adv-x="1264" 
d="M606 162q120 0 191 113t71 305q0 189 -71 302t-189 113q-119 0 -190.5 -112t-71.5 -303t71.5 -304.5t188.5 -113.5zM879 0q3 64 10 129.5t18 136.5q-52 -144 -143 -221.5t-209 -77.5q-195 0 -315.5 170.5t-120.5 452.5q0 281 121.5 452.5t314.5 171.5q110 0 197 -62
t137 -177q-14 54 -20.5 113t-6.5 149v100h-397v119h397v156h223v-156h179v-119h-179v-1337h-206z" />
    <glyph glyph-name="sfthyphen" unicode="&#xad;" horiz-adv-x="750" 
d="M94 514v199h559v-199h-559z" />
    <glyph glyph-name="periodcentered" unicode="&#x2219;" horiz-adv-x="555" 
d="M276 618q-67 0 -113 47t-46 115t46 114t113 46q68 0 115 -46t47 -114q0 -67 -47 -114.5t-115 -47.5z" />
    </font>
</defs>
</svg>
